<svg xmlns="http://www.w3.org/2000/svg" xmlns:xlink="http://www.w3.org/1999/xlink" viewBox="0 0 395.85 104.66"><defs><style>.cls-1{isolation:isolate;}.cls-2{fill:url(#linear-gradient);}.cls-3{fill:url(#linear-gradient-2);}.cls-4{fill:url(#linear-gradient-3);}.cls-5{fill:url(#linear-gradient-4);}.cls-6{fill:url(#linear-gradient-5);}.cls-7{fill:url(#linear-gradient-6);}.cls-8,.cls-9{mix-blend-mode:multiply;}.cls-8{fill:url(#linear-gradient-7);}.cls-9{fill:url(#linear-gradient-8);}.cls-10,.cls-11{opacity:0.7;mix-blend-mode:soft-light;}.cls-10{fill:url(#linear-gradient-9);}.cls-11{fill:url(#linear-gradient-10);}.cls-12{fill:#dcdcdc;}</style><linearGradient id="linear-gradient" x1="198.56" y1="-51.15" x2="225.94" y2="158.4" gradientUnits="userSpaceOnUse"><stop offset="0" stop-color="#f0ede8"/><stop offset="0.94" stop-color="#d2d1cc"/><stop offset="1" stop-color="#999a9e"/></linearGradient><linearGradient id="linear-gradient-2" x1="13.43" y1="-73.36" x2="23.31" y2="-73.36" gradientTransform="matrix(1, 0, 0, -1, 0, 42.24)" gradientUnits="userSpaceOnUse"><stop offset="0" stop-color="#f0ede8"/><stop offset="0.6" stop-color="#d2d1cc"/><stop offset="1" stop-color="#999a9e"/></linearGradient><linearGradient id="linear-gradient-3" x1="3.68" y1="-69.47" x2="20.88" y2="-78.86" gradientTransform="matrix(1, 0, 0, -1, 0, 42.24)" gradientUnits="userSpaceOnUse"><stop offset="0" stop-color="#565656"/><stop offset="1" stop-color="#202020"/></linearGradient><linearGradient id="linear-gradient-4" x1="13.43" y1="30.06" x2="23.31" y2="30.06" gradientTransform="matrix(1, 0, 0, 1, 0, 0)" xlink:href="#linear-gradient-2"/><linearGradient id="linear-gradient-5" x1="3.68" y1="33.94" x2="20.88" y2="24.55" gradientTransform="matrix(1, 0, 0, 1, 0, 0)" xlink:href="#linear-gradient-3"/><linearGradient id="linear-gradient-6" x1="52.63" y1="-68.07" x2="524.11" y2="345.36" gradientUnits="userSpaceOnUse"><stop offset="0.13" stop-color="#d4d3ce"/><stop offset="0.4" stop-color="#d2d1cc"/><stop offset="1" stop-color="#999a9e"/></linearGradient><linearGradient id="linear-gradient-7" x1="214.75" y1="30.29" x2="214.75" y2="20.54" gradientUnits="userSpaceOnUse"><stop offset="0" stop-color="#fff"/><stop offset="0.24" stop-color="#fcfcfc"/><stop offset="0.43" stop-color="#f2f2f3"/><stop offset="0.6" stop-color="#e2e2e3"/><stop offset="0.76" stop-color="#cacbcd"/><stop offset="0.91" stop-color="#adaeb1"/><stop offset="1" stop-color="#999a9e"/></linearGradient><linearGradient id="linear-gradient-8" x1="214.75" y1="115.42" x2="214.75" y2="125.28" xlink:href="#linear-gradient-7"/><linearGradient id="linear-gradient-9" x1="214.75" y1="24.56" x2="214.75" y2="33.58" gradientUnits="userSpaceOnUse"><stop offset="0" stop-color="#fff" stop-opacity="0"/><stop offset="0.5" stop-color="#fff"/><stop offset="1" stop-color="#fff" stop-opacity="0"/></linearGradient><linearGradient id="linear-gradient-10" x1="214.75" y1="-95.37" x2="214.75" y2="-86.35" gradientTransform="matrix(1, 0, 0, -1, 0, 25.62)" xlink:href="#linear-gradient-9"/></defs><g class="cls-1"><g id="Capa_5" data-name="Capa 5"><path class="cls-2" d="M409.27,72.77V29.21s.4-6.32-3.79-8.75H27.41s-7.19-.81-7.19,8.58V116.5c0,9.4,7.19,8.59,7.19,8.59H405.48c4.19-2.43,3.79-8.75,3.79-8.75Z" transform="translate(-13.43 -20.44)"/><path class="cls-3" d="M20.82,118.76H15.93a2.81,2.81,0,0,1-2.5-3v-.24a2.81,2.81,0,0,1,2.5-3h4.89a2.8,2.8,0,0,1,2.49,3v.24A2.8,2.8,0,0,1,20.82,118.76Z" transform="translate(-13.43 -20.44)"/><path class="cls-4" d="M22.15,121.88H16s-2.59-.17-2.59-2.19v-4.21A2.6,2.6,0,0,0,16,118h6.13Z" transform="translate(-13.43 -20.44)"/><path class="cls-5" d="M20.82,26.9H15.93a2.81,2.81,0,0,0-2.5,3v.24a2.81,2.81,0,0,0,2.5,3h4.89a2.8,2.8,0,0,0,2.49-3v-.24A2.8,2.8,0,0,0,20.82,26.9Z" transform="translate(-13.43 -20.44)"/><path class="cls-6" d="M22.15,23.78H16s-2.59.16-2.59,2.19v4.21A2.6,2.6,0,0,1,16,27.67h6.13Z" transform="translate(-13.43 -20.44)"/><path class="cls-7" d="M376.75,34.31H52.89s-23.76-.73-23.76,6.8v66.81c0,7.53,23.76,6.8,23.76,6.8H376.75c22.88,0,24.64-5.59,24.64-5.59V39.9S399.63,34.31,376.75,34.31Z" transform="translate(-13.43 -20.44)"/><path class="cls-8" d="M409.27,30.06v-.85s.4-6.32-3.79-8.75H27.41s-7.19-.81-7.19,8.58v1Z" transform="translate(-13.43 -20.44)"/><path class="cls-9" d="M409.27,115.6h-389v.9c0,9.4,7.19,8.59,7.19,8.59H405.48c4.19-2.43,3.79-8.75,3.79-8.75Z" transform="translate(-13.43 -20.44)"/><path class="cls-10" d="M405.48,20.46H27.41s-7.19-.81-7.19,8.58V40.15h389V29.21S409.67,22.89,405.48,20.46Z" transform="translate(-13.43 -20.44)"/><path class="cls-11" d="M405.48,125.09H27.41s-7.19.81-7.19-8.59V105.4h389v10.94S409.67,122.66,405.48,125.09Z" transform="translate(-13.43 -20.44)"/><path class="cls-12" d="M160.94,39.69h9.78a1.71,1.71,0,0,1,1.48-1.12A1.29,1.29,0,0,0,171,38h-10c-.69,0-1.26.38-1.27.87S160.25,39.69,160.94,39.69Z" transform="translate(-13.43 -20.44)"/><path class="cls-12" d="M170.7,49.78h-9.76c-.69,0-1.27.36-1.3.84s.51.89,1.2.91H171a1.51,1.51,0,0,0,1.2-.53A1.59,1.59,0,0,1,170.7,49.78Z" transform="translate(-13.43 -20.44)"/><path class="cls-12" d="M170.65,49.31V40.18h-9.73A1.86,1.86,0,0,1,159,39h-4c-.48,0-.88.26-.89.6h0V49.78c0,.34.4.62.89.61h4A1.89,1.89,0,0,1,161,49.31Z" transform="translate(-13.43 -20.44)"/><path class="cls-12" d="M172.65,39c-.69,0-1.26.38-1.27.87v9.8c0,.49.57.88,1.27.88s1.27-.39,1.27-.88v-9.8C173.91,39.4,173.34,39,172.65,39Z" transform="translate(-13.43 -20.44)"/><path d="M172.88,38.55A1.92,1.92,0,0,0,171,37.48h-10A1.93,1.93,0,0,0,159,38.54h-4c-.87,0-1.57.5-1.58,1.1V49.78c0,.6.71,1.09,1.57,1.08h4A1.9,1.9,0,0,0,160.92,52h10a2,2,0,0,0,1.88-.95c1-.06,1.76-.64,1.76-1.34v-9.8C174.58,39.2,173.85,38.64,172.88,38.55ZM160.94,38h10a1.29,1.29,0,0,1,1.22.62,1.71,1.71,0,0,0-1.48,1.12h-9.78c-.69,0-1.26-.39-1.27-.87S160.25,37.94,160.94,38ZM159,50.39h-4c-.49,0-.89-.26-.9-.6h0V39.64c0-.34.4-.61.89-.61h4a1.88,1.88,0,0,0,1.93,1.15h9.73v9.13h-9.71A1.87,1.87,0,0,0,159,50.39ZM171,51.53h-10c-.69,0-1.27-.36-1.3-.84s.51-.89,1.2-.91h9.86A1.59,1.59,0,0,0,172.16,51,1.51,1.51,0,0,1,171,51.53Zm3-1.84c0,.49-.57.88-1.27.88s-1.27-.39-1.27-.88v-9.8c0-.49.57-.89,1.27-.89s1.27.4,1.27.89Z" transform="translate(-13.43 -20.44)"/><path class="cls-12" d="M133.19,39.69H143a1.71,1.71,0,0,1,1.48-1.12,1.29,1.29,0,0,0-1.22-.62h-10c-.69,0-1.26.38-1.26.87S132.5,39.69,133.19,39.69Z" transform="translate(-13.43 -20.44)"/><path class="cls-12" d="M143,49.78h-9.76c-.68,0-1.27.36-1.29.84s.5.89,1.19.91h10.12a1.51,1.51,0,0,0,1.2-.53A1.6,1.6,0,0,1,143,49.78Z" transform="translate(-13.43 -20.44)"/><path class="cls-12" d="M142.9,49.31V40.18h-9.72A1.87,1.87,0,0,1,131.25,39h-4c-.48,0-.88.26-.89.6h0V49.78c0,.34.41.62.89.61h4a1.89,1.89,0,0,1,1.93-1.08Z" transform="translate(-13.43 -20.44)"/><path class="cls-12" d="M144.9,39c-.69,0-1.26.38-1.27.87v9.8c0,.49.57.88,1.27.88s1.27-.39,1.27-.88v-9.8C146.16,39.4,145.59,39,144.9,39Z" transform="translate(-13.43 -20.44)"/><path d="M145.13,38.55a1.92,1.92,0,0,0-1.92-1.07h-10a1.93,1.93,0,0,0-1.92,1.06h-4c-.86,0-1.56.5-1.57,1.1V49.78c0,.6.7,1.09,1.56,1.08h4A1.9,1.9,0,0,0,133.17,52h10a2,2,0,0,0,1.88-.95c1-.06,1.76-.64,1.76-1.34v-9.8C146.83,39.2,146.1,38.64,145.13,38.55ZM133.19,38h10a1.29,1.29,0,0,1,1.22.62A1.71,1.71,0,0,0,143,39.69h-9.78c-.69,0-1.26-.39-1.26-.87S132.5,37.94,133.19,38Zm-1.92,12.44h-4c-.49,0-.89-.26-.89-.6h0V39.64c0-.34.39-.61.88-.61h4a1.88,1.88,0,0,0,1.93,1.15h9.73v9.13h-9.71A1.87,1.87,0,0,0,131.27,50.39Zm11.94,1.14h-10c-.68,0-1.27-.36-1.29-.84s.5-.89,1.19-.91H143A1.6,1.6,0,0,0,144.41,51,1.51,1.51,0,0,1,143.21,51.53Zm3-1.84c0,.49-.57.88-1.27.88s-1.27-.39-1.27-.88v-9.8c0-.49.57-.89,1.27-.89s1.27.4,1.27.89Z" transform="translate(-13.43 -20.44)"/><path class="cls-12" d="M105.45,39.69h9.77a1.71,1.71,0,0,1,1.48-1.12,1.29,1.29,0,0,0-1.22-.62h-10c-.7,0-1.27.38-1.27.87S104.75,39.69,105.45,39.69Z" transform="translate(-13.43 -20.44)"/><path class="cls-12" d="M115.2,49.78h-9.75c-.69,0-1.27.36-1.3.84s.5.89,1.19.91h10.12a1.51,1.51,0,0,0,1.2-.53A1.6,1.6,0,0,1,115.2,49.78Z" transform="translate(-13.43 -20.44)"/><path class="cls-12" d="M115.15,49.31V40.18h-9.72A1.88,1.88,0,0,1,103.5,39h-4c-.49,0-.89.26-.9.6h0V49.78c0,.34.41.62.89.61h4a1.89,1.89,0,0,1,1.93-1.08Z" transform="translate(-13.43 -20.44)"/><path class="cls-12" d="M117.15,39c-.69,0-1.26.38-1.27.87v9.8c0,.49.57.88,1.27.88s1.27-.39,1.27-.88v-9.8C118.41,39.4,117.85,39,117.15,39Z" transform="translate(-13.43 -20.44)"/><path d="M117.39,38.55a1.94,1.94,0,0,0-1.93-1.07h-10a2,2,0,0,0-1.93,1.06h-4c-.86,0-1.56.5-1.57,1.1V49.78c0,.6.71,1.09,1.56,1.08h4A1.88,1.88,0,0,0,105.42,52h10a2,2,0,0,0,1.88-.95c1-.06,1.76-.64,1.76-1.34v-9.8C119.09,39.2,118.35,38.64,117.39,38.55ZM105.45,38h10a1.29,1.29,0,0,1,1.22.62,1.71,1.71,0,0,0-1.48,1.12h-9.77c-.7,0-1.27-.39-1.27-.87S104.75,37.94,105.45,38Zm-1.93,12.44h-4c-.48,0-.89-.26-.89-.6h0V39.64c0-.34.39-.61.88-.61h4a1.86,1.86,0,0,0,1.92,1.15h9.73v9.13h-9.7A1.88,1.88,0,0,0,103.52,50.39Zm11.94,1.14h-10c-.69,0-1.27-.36-1.3-.84s.5-.89,1.19-.91h9.86A1.6,1.6,0,0,0,116.66,51,1.51,1.51,0,0,1,115.46,51.53Zm3-1.84c0,.49-.57.88-1.27.88s-1.27-.39-1.27-.88v-9.8c0-.49.57-.89,1.27-.89s1.27.4,1.27.89Z" transform="translate(-13.43 -20.44)"/><path class="cls-12" d="M77.7,39.75h9.78A1.71,1.71,0,0,1,89,38.64,1.32,1.32,0,0,0,87.73,38h-10c-.7,0-1.26.39-1.27.88S77,39.76,77.7,39.75Z" transform="translate(-13.43 -20.44)"/><path class="cls-12" d="M87.45,49.85H77.7c-.69,0-1.27.35-1.3.83s.5.89,1.19.91H87.71a1.48,1.48,0,0,0,1.2-.52A1.61,1.61,0,0,1,87.45,49.85Z" transform="translate(-13.43 -20.44)"/><path class="cls-12" d="M87.41,49.37V40.25H77.68a1.87,1.87,0,0,1-1.93-1.16h-4c-.49,0-.89.27-.9.61h0V49.85c0,.34.41.61.9.61h4a1.87,1.87,0,0,1,1.92-1.08Z" transform="translate(-13.43 -20.44)"/><path class="cls-12" d="M89.4,39.08c-.69,0-1.26.39-1.27.87v9.8c0,.49.57.89,1.27.89s1.27-.4,1.27-.89V40C90.67,39.47,90.1,39.08,89.4,39.08Z" transform="translate(-13.43 -20.44)"/><path d="M89.64,38.62a2,2,0,0,0-1.93-1.08h-10a2,2,0,0,0-1.93,1.07h-4c-.86,0-1.56.49-1.57,1.1V49.85c0,.6.71,1.08,1.57,1.08h4a1.9,1.9,0,0,0,1.93,1.12h10a2,2,0,0,0,1.88-.95c1-.06,1.76-.65,1.76-1.35V40C91.34,39.27,90.6,38.7,89.64,38.62ZM77.7,38h10a1.32,1.32,0,0,1,1.23.63,1.71,1.71,0,0,0-1.48,1.11H77.7c-.7,0-1.26-.38-1.27-.87S77,38,77.7,38ZM75.78,50.46h-4c-.48,0-.88-.27-.89-.61h0V39.71c0-.34.39-.62.88-.62h4a1.87,1.87,0,0,0,1.93,1.15h9.73v9.13H77.7A1.88,1.88,0,0,0,75.78,50.46Zm11.93,1.13h-10c-.69,0-1.27-.35-1.3-.83s.5-.89,1.19-.91h9.86a1.61,1.61,0,0,0,1.46,1.22A1.48,1.48,0,0,1,87.71,51.59Zm3-1.84c0,.49-.57.89-1.27.89s-1.27-.4-1.27-.89V40c0-.49.57-.89,1.27-.89s1.27.4,1.27.89Z" transform="translate(-13.43 -20.44)"/><path class="cls-12" d="M188.69,39.69h9.78A1.7,1.7,0,0,1,200,38.57a1.3,1.3,0,0,0-1.22-.62h-10c-.69,0-1.26.38-1.27.87S188,39.69,188.69,39.69Z" transform="translate(-13.43 -20.44)"/><path class="cls-12" d="M198.45,49.78h-9.76c-.69,0-1.27.36-1.3.84s.51.89,1.2.91h10.12A1.49,1.49,0,0,0,199.9,51,1.58,1.58,0,0,1,198.45,49.78Z" transform="translate(-13.43 -20.44)"/><path class="cls-12" d="M198.4,49.31V40.18h-9.73A1.86,1.86,0,0,1,186.75,39h-4c-.49,0-.89.26-.89.6h0V49.78c0,.34.4.62.89.61h4a1.88,1.88,0,0,1,1.93-1.08Z" transform="translate(-13.43 -20.44)"/><path class="cls-12" d="M200.4,39c-.7,0-1.26.38-1.27.87v9.8c0,.49.57.88,1.27.88s1.27-.39,1.27-.88v-9.8C201.66,39.4,201.09,39,200.4,39Z" transform="translate(-13.43 -20.44)"/><path d="M200.63,38.55a1.92,1.92,0,0,0-1.92-1.07h-10a2,2,0,0,0-1.93,1.06h-4c-.87,0-1.57.5-1.58,1.1V49.78c0,.6.71,1.09,1.57,1.08h4A1.89,1.89,0,0,0,188.67,52h10a2,2,0,0,0,1.87-.95c1-.06,1.76-.64,1.77-1.34v-9.8C202.33,39.2,201.6,38.64,200.63,38.55ZM188.69,38h10a1.3,1.3,0,0,1,1.22.62,1.71,1.71,0,0,0-1.48,1.12h-9.78c-.69,0-1.26-.39-1.27-.87S188,37.94,188.69,38Zm-1.92,12.44h-4c-.49,0-.89-.26-.9-.6h0V39.64c0-.34.4-.61.88-.61h4a1.88,1.88,0,0,0,1.93,1.15h9.73v9.13h-9.71A1.87,1.87,0,0,0,186.77,50.39Zm11.94,1.14h-10c-.69,0-1.27-.36-1.3-.84s.51-.89,1.2-.91h9.86A1.58,1.58,0,0,0,199.9,51,1.49,1.49,0,0,1,198.71,51.53Zm3-1.84c0,.49-.57.88-1.27.88s-1.27-.39-1.27-.88v-9.8c0-.49.57-.89,1.27-.89s1.27.4,1.27.89Z" transform="translate(-13.43 -20.44)"/><path class="cls-12" d="M216.44,39.69h9.78a1.7,1.7,0,0,1,1.48-1.12,1.3,1.3,0,0,0-1.22-.62h-10c-.69,0-1.26.38-1.27.87S215.75,39.69,216.44,39.69Z" transform="translate(-13.43 -20.44)"/><path class="cls-12" d="M226.19,49.78h-9.75c-.69,0-1.27.36-1.3.84s.51.89,1.19.91h10.12a1.5,1.5,0,0,0,1.2-.53A1.6,1.6,0,0,1,226.19,49.78Z" transform="translate(-13.43 -20.44)"/><path class="cls-12" d="M226.15,49.31V40.18h-9.73A1.88,1.88,0,0,1,214.49,39h-4c-.49,0-.89.26-.89.6h0V49.78c0,.34.4.62.89.61h4a1.88,1.88,0,0,1,1.93-1.08Z" transform="translate(-13.43 -20.44)"/><path class="cls-12" d="M228.15,39c-.7,0-1.27.38-1.27.87v9.8c0,.49.57.88,1.27.88s1.26-.39,1.26-.88v-9.8C229.41,39.4,228.84,39,228.15,39Z" transform="translate(-13.43 -20.44)"/><path d="M228.38,38.55a1.93,1.93,0,0,0-1.93-1.07h-10a2,2,0,0,0-1.93,1.06h-4c-.87,0-1.57.5-1.58,1.1V49.78c0,.6.71,1.09,1.57,1.08h4A1.89,1.89,0,0,0,216.42,52h10a2,2,0,0,0,1.88-.95c1-.06,1.76-.64,1.77-1.34v-9.8C230.08,39.2,229.35,38.64,228.38,38.55ZM216.44,38h10a1.3,1.3,0,0,1,1.22.62,1.7,1.7,0,0,0-1.48,1.12h-9.78c-.69,0-1.26-.39-1.27-.87S215.75,37.94,216.44,38Zm-1.92,12.44h-4c-.49,0-.89-.26-.9-.6h0V39.64c0-.34.4-.61.88-.61h4a1.88,1.88,0,0,0,1.93,1.15h9.73v9.13h-9.71A1.87,1.87,0,0,0,214.52,50.39Zm11.93,1.14h-10c-.69,0-1.27-.36-1.3-.84s.51-.89,1.19-.91h9.86A1.6,1.6,0,0,0,227.65,51,1.5,1.5,0,0,1,226.45,51.53Zm3-1.84c0,.49-.56.88-1.26.88s-1.27-.39-1.27-.88v-9.8c0-.49.57-.89,1.27-.89s1.26.4,1.26.89Z" transform="translate(-13.43 -20.44)"/><path class="cls-12" d="M244.19,39.69H254a1.7,1.7,0,0,1,1.48-1.12,1.32,1.32,0,0,0-1.23-.62h-10c-.7,0-1.26.38-1.27.87S243.49,39.69,244.19,39.69Z" transform="translate(-13.43 -20.44)"/><path class="cls-12" d="M253.94,49.78h-9.75c-.69,0-1.27.36-1.3.84s.5.89,1.19.91H254.2a1.51,1.51,0,0,0,1.2-.53A1.6,1.6,0,0,1,253.94,49.78Z" transform="translate(-13.43 -20.44)"/><path class="cls-12" d="M253.9,49.31V40.18h-9.73A1.88,1.88,0,0,1,242.24,39h-4c-.49,0-.89.26-.9.6h0V49.78c0,.34.41.62.9.61h4a1.87,1.87,0,0,1,1.92-1.08Z" transform="translate(-13.43 -20.44)"/><path class="cls-12" d="M255.89,39c-.69,0-1.26.38-1.26.87v9.8c0,.49.56.88,1.26.88s1.27-.39,1.27-.88v-9.8C257.16,39.4,256.59,39,255.89,39Z" transform="translate(-13.43 -20.44)"/><path d="M256.13,38.55a1.93,1.93,0,0,0-1.93-1.07h-10a2,2,0,0,0-1.93,1.06h-4c-.86,0-1.56.5-1.57,1.1V49.78c0,.6.71,1.09,1.57,1.08h4A1.89,1.89,0,0,0,244.17,52h10a2,2,0,0,0,1.88-.95c1-.06,1.76-.64,1.76-1.34v-9.8C257.83,39.2,257.1,38.64,256.13,38.55ZM244.19,38h10a1.32,1.32,0,0,1,1.23.62A1.7,1.7,0,0,0,254,39.69h-9.78c-.7,0-1.26-.39-1.27-.87S243.49,37.94,244.19,38Zm-1.92,12.44h-4c-.48,0-.88-.26-.89-.6h0V39.64c0-.34.39-.61.88-.61h4a1.88,1.88,0,0,0,1.93,1.15h9.73v9.13h-9.71A1.86,1.86,0,0,0,242.27,50.39Zm11.93,1.14h-10c-.69,0-1.27-.36-1.3-.84s.5-.89,1.19-.91h9.86A1.6,1.6,0,0,0,255.4,51,1.51,1.51,0,0,1,254.2,51.53Zm3-1.84c0,.49-.57.88-1.27.88s-1.26-.39-1.26-.88v-9.8c0-.49.56-.89,1.26-.89s1.27.4,1.27.89Z" transform="translate(-13.43 -20.44)"/><path class="cls-12" d="M271.94,39.69h9.78a1.69,1.69,0,0,1,1.48-1.12A1.32,1.32,0,0,0,282,38h-10c-.7,0-1.27.38-1.27.87S271.24,39.69,271.94,39.69Z" transform="translate(-13.43 -20.44)"/><path class="cls-12" d="M281.69,49.78h-9.75c-.69,0-1.27.36-1.3.84s.5.89,1.19.91H282a1.51,1.51,0,0,0,1.2-.53A1.6,1.6,0,0,1,281.69,49.78Z" transform="translate(-13.43 -20.44)"/><path class="cls-12" d="M281.64,49.31V40.18h-9.72A1.88,1.88,0,0,1,270,39h-4c-.49,0-.89.26-.9.6h0V49.78c0,.34.41.62.89.61h4a1.87,1.87,0,0,1,1.92-1.08Z" transform="translate(-13.43 -20.44)"/><path class="cls-12" d="M283.64,39c-.69,0-1.26.38-1.27.87v9.8c0,.49.57.88,1.27.88s1.27-.39,1.27-.88v-9.8C284.9,39.4,284.34,39,283.64,39Z" transform="translate(-13.43 -20.44)"/><path d="M283.88,38.55A1.93,1.93,0,0,0,282,37.48h-10A2,2,0,0,0,270,38.54h-4c-.86,0-1.56.5-1.57,1.1V49.78c0,.6.71,1.09,1.57,1.08h4A1.88,1.88,0,0,0,271.91,52h10a2,2,0,0,0,1.88-.95c1-.06,1.76-.64,1.76-1.34v-9.8C285.58,39.2,284.84,38.64,283.88,38.55ZM271.94,38h10a1.32,1.32,0,0,1,1.23.62,1.69,1.69,0,0,0-1.48,1.12h-9.78c-.7,0-1.27-.39-1.27-.87S271.24,37.94,271.94,38ZM270,50.39h-4c-.48,0-.88-.26-.89-.6h0V39.64c0-.34.39-.61.88-.61h4a1.86,1.86,0,0,0,1.92,1.15h9.73v9.13h-9.7A1.86,1.86,0,0,0,270,50.39ZM282,51.53h-10c-.69,0-1.27-.36-1.3-.84s.5-.89,1.19-.91h9.86A1.6,1.6,0,0,0,283.15,51,1.51,1.51,0,0,1,282,51.53Zm3-1.84c0,.49-.57.88-1.27.88s-1.27-.39-1.27-.88v-9.8c0-.49.57-.89,1.27-.89s1.27.4,1.27.89Z" transform="translate(-13.43 -20.44)"/><path class="cls-12" d="M299.68,39.69h9.78a1.71,1.71,0,0,1,1.48-1.12,1.29,1.29,0,0,0-1.22-.62h-10c-.69,0-1.26.38-1.26.87S299,39.69,299.68,39.69Z" transform="translate(-13.43 -20.44)"/><path class="cls-12" d="M309.44,49.78h-9.76c-.68,0-1.26.36-1.29.84s.5.89,1.19.91H309.7a1.51,1.51,0,0,0,1.2-.53A1.6,1.6,0,0,1,309.44,49.78Z" transform="translate(-13.43 -20.44)"/><path class="cls-12" d="M309.39,49.31V40.18h-9.72A1.87,1.87,0,0,1,297.74,39h-4c-.49,0-.89.26-.9.6h0V49.78c0,.34.41.62.89.61h4a1.89,1.89,0,0,1,1.93-1.08Z" transform="translate(-13.43 -20.44)"/><path class="cls-12" d="M311.39,39c-.69,0-1.26.38-1.27.87v9.8c0,.49.57.88,1.27.88s1.27-.39,1.27-.88v-9.8C312.65,39.4,312.08,39,311.39,39Z" transform="translate(-13.43 -20.44)"/><path d="M311.62,38.55a1.92,1.92,0,0,0-1.92-1.07h-10a1.93,1.93,0,0,0-1.92,1.06h-4c-.86,0-1.56.5-1.57,1.1V49.78c0,.6.71,1.09,1.56,1.08h4A1.88,1.88,0,0,0,299.66,52h10a2,2,0,0,0,1.88-.95c1-.06,1.76-.64,1.76-1.34v-9.8C313.33,39.2,312.59,38.64,311.62,38.55ZM299.68,38h10a1.29,1.29,0,0,1,1.22.62,1.71,1.71,0,0,0-1.48,1.12h-9.78c-.69,0-1.26-.39-1.26-.87S299,37.94,299.68,38Zm-1.92,12.44h-4c-.49,0-.89-.26-.89-.6h0V39.64c0-.34.39-.61.88-.61h4a1.86,1.86,0,0,0,1.92,1.15h9.73v9.13h-9.71A1.87,1.87,0,0,0,297.76,50.39Zm11.94,1.14h-10c-.68,0-1.26-.36-1.29-.84s.5-.89,1.19-.91h9.86A1.6,1.6,0,0,0,310.9,51,1.51,1.51,0,0,1,309.7,51.53Zm3-1.84c0,.49-.57.88-1.27.88s-1.27-.39-1.27-.88v-9.8c0-.49.57-.89,1.27-.89s1.27.4,1.27.89Z" transform="translate(-13.43 -20.44)"/><path class="cls-12" d="M327.43,39.69h9.78a1.71,1.71,0,0,1,1.48-1.12,1.29,1.29,0,0,0-1.22-.62h-10c-.69,0-1.26.38-1.27.87S326.74,39.69,327.43,39.69Z" transform="translate(-13.43 -20.44)"/><path class="cls-12" d="M337.19,49.78h-9.76c-.68,0-1.27.36-1.29.84s.5.89,1.19.91h10.12a1.51,1.51,0,0,0,1.2-.53A1.59,1.59,0,0,1,337.19,49.78Z" transform="translate(-13.43 -20.44)"/><path class="cls-12" d="M337.14,49.31V40.18h-9.72A1.86,1.86,0,0,1,325.49,39h-4c-.48,0-.88.26-.89.6h0V49.78c0,.34.4.62.89.61h4a1.89,1.89,0,0,1,1.93-1.08Z" transform="translate(-13.43 -20.44)"/><path class="cls-12" d="M339.14,39c-.69,0-1.26.38-1.27.87v9.8c0,.49.57.88,1.27.88s1.27-.39,1.27-.88v-9.8C340.4,39.4,339.83,39,339.14,39Z" transform="translate(-13.43 -20.44)"/><path d="M339.37,38.55a1.92,1.92,0,0,0-1.92-1.07h-10a1.93,1.93,0,0,0-1.92,1.06h-4c-.87,0-1.56.5-1.58,1.1V49.78c0,.6.71,1.09,1.57,1.08h4A1.9,1.9,0,0,0,327.41,52h10a2,2,0,0,0,1.88-.95c1-.06,1.76-.64,1.76-1.34v-9.8C341.07,39.2,340.34,38.64,339.37,38.55ZM327.43,38h10a1.29,1.29,0,0,1,1.22.62,1.71,1.71,0,0,0-1.48,1.12h-9.78c-.69,0-1.26-.39-1.27-.87S326.74,37.94,327.43,38Zm-1.92,12.44h-4c-.49,0-.89-.26-.9-.6h0V39.64c0-.34.4-.61.89-.61h4a1.88,1.88,0,0,0,1.93,1.15h9.73v9.13h-9.71A1.87,1.87,0,0,0,325.51,50.39Zm11.94,1.14h-10c-.68,0-1.27-.36-1.29-.84s.5-.89,1.19-.91h9.86A1.59,1.59,0,0,0,338.65,51,1.51,1.51,0,0,1,337.45,51.53Zm3-1.84c0,.49-.57.88-1.27.88s-1.27-.39-1.27-.88v-9.8c0-.49.57-.89,1.27-.89s1.27.4,1.27.89Z" transform="translate(-13.43 -20.44)"/><path class="cls-12" d="M355.18,39.69H365a1.7,1.7,0,0,1,1.48-1.12,1.3,1.3,0,0,0-1.22-.62h-10c-.69,0-1.26.38-1.27.87S354.49,39.69,355.18,39.69Z" transform="translate(-13.43 -20.44)"/><path class="cls-12" d="M364.94,49.78h-9.76c-.69,0-1.27.36-1.3.84s.51.89,1.2.91H365.2a1.48,1.48,0,0,0,1.19-.53A1.58,1.58,0,0,1,364.94,49.78Z" transform="translate(-13.43 -20.44)"/><path class="cls-12" d="M364.89,49.31V40.18h-9.73A1.86,1.86,0,0,1,353.24,39h-4c-.48,0-.88.26-.89.6h0V49.78c0,.34.4.62.89.61h4a1.88,1.88,0,0,1,1.93-1.08Z" transform="translate(-13.43 -20.44)"/><path class="cls-12" d="M366.89,39c-.7,0-1.26.38-1.27.87v9.8c0,.49.57.88,1.27.88s1.27-.39,1.27-.88v-9.8C368.15,39.4,367.58,39,366.89,39Z" transform="translate(-13.43 -20.44)"/><path d="M367.12,38.55a1.92,1.92,0,0,0-1.92-1.07h-10a2,2,0,0,0-1.93,1.06h-4c-.87,0-1.57.5-1.58,1.1V49.78c0,.6.71,1.09,1.57,1.08h4A1.89,1.89,0,0,0,355.16,52h10a2,2,0,0,0,1.88-.95c1-.06,1.75-.64,1.76-1.34v-9.8C368.82,39.2,368.09,38.64,367.12,38.55ZM355.18,38h10a1.3,1.3,0,0,1,1.22.62A1.71,1.71,0,0,0,365,39.69h-9.78c-.69,0-1.26-.39-1.27-.87S354.49,37.94,355.18,38Zm-1.92,12.44h-4c-.49,0-.89-.26-.9-.6h0V39.64c0-.34.4-.61.88-.61h4a1.88,1.88,0,0,0,1.93,1.15h9.73v9.13h-9.71A1.87,1.87,0,0,0,353.26,50.39Zm11.94,1.14h-10c-.69,0-1.27-.36-1.3-.84s.51-.89,1.2-.91h9.86A1.58,1.58,0,0,0,366.39,51,1.48,1.48,0,0,1,365.2,51.53Zm3-1.84c0,.49-.57.88-1.27.88s-1.27-.39-1.27-.88v-9.8c0-.49.57-.89,1.27-.89s1.27.4,1.27.89Z" transform="translate(-13.43 -20.44)"/><path class="cls-12" d="M382.93,39.69h9.78a1.7,1.7,0,0,1,1.48-1.12A1.3,1.3,0,0,0,393,38h-10c-.69,0-1.26.38-1.27.87S382.24,39.69,382.93,39.69Z" transform="translate(-13.43 -20.44)"/><path class="cls-12" d="M392.68,49.78h-9.75c-.69,0-1.27.36-1.3.84s.51.89,1.2.91h10.11a1.5,1.5,0,0,0,1.2-.53A1.6,1.6,0,0,1,392.68,49.78Z" transform="translate(-13.43 -20.44)"/><path class="cls-12" d="M392.64,49.31V40.18h-9.73A1.88,1.88,0,0,1,381,39h-4c-.49,0-.89.26-.89.6h0V49.78c0,.34.4.62.89.61h4a1.88,1.88,0,0,1,1.93-1.08Z" transform="translate(-13.43 -20.44)"/><path class="cls-12" d="M394.64,39c-.7,0-1.27.38-1.27.87v9.8c0,.49.57.88,1.27.88s1.27-.39,1.27-.88v-9.8C395.9,39.4,395.33,39,394.64,39Z" transform="translate(-13.43 -20.44)"/><path d="M394.87,38.55a1.93,1.93,0,0,0-1.93-1.07h-10A2,2,0,0,0,381,38.54h-4c-.87,0-1.57.5-1.58,1.1V49.78c0,.6.71,1.09,1.57,1.08h4A1.89,1.89,0,0,0,382.91,52h10a2,2,0,0,0,1.88-.95c1-.06,1.76-.64,1.77-1.34v-9.8C396.57,39.2,395.84,38.64,394.87,38.55ZM382.93,38h10a1.3,1.3,0,0,1,1.22.62,1.7,1.7,0,0,0-1.48,1.12h-9.78c-.69,0-1.26-.39-1.27-.87S382.24,37.94,382.93,38ZM381,50.39h-4c-.49,0-.89-.26-.9-.6h0V39.64c0-.34.4-.61.88-.61h4a1.88,1.88,0,0,0,1.93,1.15h9.73v9.13h-9.71A1.87,1.87,0,0,0,381,50.39Zm11.93,1.14h-10c-.69,0-1.27-.36-1.3-.84s.51-.89,1.2-.91h9.85A1.6,1.6,0,0,0,394.14,51,1.5,1.5,0,0,1,392.94,51.53Zm3-1.84c0,.49-.57.88-1.27.88s-1.27-.39-1.27-.88v-9.8c0-.49.57-.89,1.27-.89s1.27.4,1.27.89Z" transform="translate(-13.43 -20.44)"/><path class="cls-12" d="M160.94,54.72h9.78a1.71,1.71,0,0,1,1.48-1.12A1.31,1.31,0,0,0,171,53h-10c-.69,0-1.26.39-1.27.87S160.25,54.73,160.94,54.72Z" transform="translate(-13.43 -20.44)"/><path class="cls-12" d="M170.7,64.82h-9.76c-.69,0-1.27.35-1.3.83s.51.89,1.2.91H171a1.48,1.48,0,0,0,1.2-.53A1.59,1.59,0,0,1,170.7,64.82Z" transform="translate(-13.43 -20.44)"/><path class="cls-12" d="M170.65,64.34V55.21h-9.73A1.84,1.84,0,0,1,159,54.06h-4c-.48,0-.88.27-.89.61h0V64.82c0,.34.4.61.89.61h4A1.88,1.88,0,0,1,161,64.35Z" transform="translate(-13.43 -20.44)"/><path class="cls-12" d="M172.65,54.05c-.69,0-1.26.38-1.27.87v9.8c0,.49.57.89,1.27.89s1.27-.4,1.27-.89v-9.8C173.91,54.43,173.34,54,172.65,54.05Z" transform="translate(-13.43 -20.44)"/><path d="M172.88,53.59A1.94,1.94,0,0,0,171,52.51h-10A1.94,1.94,0,0,0,159,53.58h-4c-.87,0-1.57.49-1.58,1.1V64.82c0,.6.71,1.08,1.57,1.08h4A1.89,1.89,0,0,0,160.92,67h10a2,2,0,0,0,1.88-.94c1-.07,1.76-.65,1.76-1.35v-9.8C174.58,54.24,173.85,53.67,172.88,53.59ZM160.94,53h10a1.29,1.29,0,0,1,1.22.63,1.69,1.69,0,0,0-1.48,1.11h-9.78c-.69,0-1.26-.38-1.27-.87S160.25,53,160.94,53ZM159,65.43h-4c-.49,0-.89-.27-.9-.61h0V54.68c0-.35.4-.62.89-.62h4a1.88,1.88,0,0,0,1.93,1.15h9.73v9.13h-9.71A1.87,1.87,0,0,0,159,65.43ZM171,66.56h-10c-.69,0-1.27-.35-1.3-.84s.51-.88,1.2-.9h9.86A1.59,1.59,0,0,0,172.16,66,1.48,1.48,0,0,1,171,66.56Zm3-1.84c0,.49-.57.89-1.27.89s-1.27-.4-1.27-.89v-9.8c0-.49.57-.89,1.27-.89s1.27.4,1.27.89Z" transform="translate(-13.43 -20.44)"/><path class="cls-12" d="M133.19,54.72H143a1.71,1.71,0,0,1,1.48-1.12,1.31,1.31,0,0,0-1.22-.62h-10c-.69,0-1.26.39-1.26.87S132.5,54.73,133.19,54.72Z" transform="translate(-13.43 -20.44)"/><path class="cls-12" d="M143,64.82h-9.76c-.68,0-1.27.35-1.29.83s.5.89,1.19.91h10.12a1.48,1.48,0,0,0,1.2-.53A1.6,1.6,0,0,1,143,64.82Z" transform="translate(-13.43 -20.44)"/><path class="cls-12" d="M142.9,64.34V55.21h-9.72a1.86,1.86,0,0,1-1.93-1.15h-4c-.48,0-.88.27-.89.61h0V64.82c0,.34.41.61.89.61h4a1.88,1.88,0,0,1,1.93-1.08Z" transform="translate(-13.43 -20.44)"/><path class="cls-12" d="M144.9,54.05c-.69,0-1.26.38-1.27.87v9.8c0,.49.57.89,1.27.89s1.27-.4,1.27-.89v-9.8C146.16,54.43,145.59,54,144.9,54.05Z" transform="translate(-13.43 -20.44)"/><path d="M145.13,53.59a1.94,1.94,0,0,0-1.92-1.08h-10a1.94,1.94,0,0,0-1.92,1.07h-4c-.86,0-1.56.49-1.57,1.1V64.82c0,.6.7,1.08,1.56,1.08h4A1.89,1.89,0,0,0,133.17,67h10a2,2,0,0,0,1.88-.94c1-.07,1.76-.65,1.76-1.35v-9.8C146.83,54.24,146.1,53.67,145.13,53.59ZM133.19,53h10a1.29,1.29,0,0,1,1.22.63A1.69,1.69,0,0,0,143,54.72h-9.78c-.69,0-1.26-.38-1.26-.87S132.5,53,133.19,53Zm-1.92,12.45h-4c-.49,0-.89-.27-.89-.61h0V54.68c0-.35.39-.62.88-.62h4a1.88,1.88,0,0,0,1.93,1.15h9.73v9.13h-9.71A1.87,1.87,0,0,0,131.27,65.43Zm11.94,1.13h-10c-.68,0-1.27-.35-1.29-.84s.5-.88,1.19-.9H143A1.6,1.6,0,0,0,144.41,66,1.48,1.48,0,0,1,143.21,66.56Zm3-1.84c0,.49-.57.89-1.27.89s-1.27-.4-1.27-.89v-9.8c0-.49.57-.89,1.27-.89s1.27.4,1.27.89Z" transform="translate(-13.43 -20.44)"/><path class="cls-12" d="M105.45,54.72h9.77a1.71,1.71,0,0,1,1.48-1.12,1.31,1.31,0,0,0-1.22-.62h-10c-.7,0-1.27.39-1.27.87S104.75,54.73,105.45,54.72Z" transform="translate(-13.43 -20.44)"/><path class="cls-12" d="M115.2,64.82h-9.75c-.69,0-1.27.35-1.3.83s.5.89,1.19.91h10.12a1.48,1.48,0,0,0,1.2-.53A1.6,1.6,0,0,1,115.2,64.82Z" transform="translate(-13.43 -20.44)"/><path class="cls-12" d="M115.15,64.34V55.21h-9.72a1.87,1.87,0,0,1-1.93-1.15h-4c-.49,0-.89.27-.9.61h0V64.82c0,.34.41.61.89.61h4a1.88,1.88,0,0,1,1.93-1.08Z" transform="translate(-13.43 -20.44)"/><path class="cls-12" d="M117.15,54.05c-.69,0-1.26.38-1.27.87v9.8c0,.49.57.89,1.27.89s1.27-.4,1.27-.89v-9.8C118.41,54.43,117.85,54,117.15,54.05Z" transform="translate(-13.43 -20.44)"/><path d="M117.39,53.59a2,2,0,0,0-1.93-1.08h-10a2,2,0,0,0-1.93,1.07h-4c-.86,0-1.56.49-1.57,1.1V64.82c0,.6.71,1.08,1.56,1.08h4A1.88,1.88,0,0,0,105.42,67h10a2,2,0,0,0,1.88-.94c1-.07,1.76-.65,1.76-1.35v-9.8C119.09,54.24,118.35,53.67,117.39,53.59ZM105.45,53h10a1.29,1.29,0,0,1,1.22.63,1.69,1.69,0,0,0-1.48,1.11h-9.77c-.7,0-1.27-.38-1.27-.87S104.75,53,105.45,53Zm-1.93,12.45h-4c-.48,0-.89-.27-.89-.61h0V54.68c0-.35.39-.62.88-.62h4a1.86,1.86,0,0,0,1.92,1.15h9.73v9.13h-9.7A1.87,1.87,0,0,0,103.52,65.43Zm11.94,1.13h-10c-.69,0-1.27-.35-1.3-.84s.5-.88,1.19-.9h9.86A1.6,1.6,0,0,0,116.66,66,1.48,1.48,0,0,1,115.46,66.56Zm3-1.84c0,.49-.57.89-1.27.89s-1.27-.4-1.27-.89v-9.8c0-.49.57-.89,1.27-.89s1.27.4,1.27.89Z" transform="translate(-13.43 -20.44)"/><path class="cls-12" d="M77.7,54.79h9.78A1.7,1.7,0,0,1,89,53.67a1.32,1.32,0,0,0-1.23-.62h-10c-.7,0-1.26.38-1.27.87S77,54.79,77.7,54.79Z" transform="translate(-13.43 -20.44)"/><path class="cls-12" d="M87.45,64.88H77.7c-.69,0-1.27.36-1.3.84s.5.88,1.19.91H87.71a1.51,1.51,0,0,0,1.2-.53A1.6,1.6,0,0,1,87.45,64.88Z" transform="translate(-13.43 -20.44)"/><path class="cls-12" d="M87.41,64.41V55.28H77.68a1.87,1.87,0,0,1-1.93-1.16h-4c-.49,0-.89.27-.9.61h0V64.88c0,.34.41.61.9.61h4a1.87,1.87,0,0,1,1.92-1.08Z" transform="translate(-13.43 -20.44)"/><path class="cls-12" d="M89.4,54.11c-.69,0-1.26.39-1.27.87v9.8c0,.49.57.89,1.27.89s1.27-.4,1.27-.89V55C90.67,54.5,90.1,54.11,89.4,54.11Z" transform="translate(-13.43 -20.44)"/><path d="M89.64,53.65a2,2,0,0,0-1.93-1.08h-10a2,2,0,0,0-1.93,1.07h-4c-.86,0-1.56.5-1.57,1.1V64.88c0,.6.71,1.09,1.57,1.08h4a1.9,1.9,0,0,0,1.93,1.12h10a2,2,0,0,0,1.88-1c1-.06,1.76-.65,1.76-1.35V55C91.34,54.3,90.6,53.73,89.64,53.65Zm-11.94-.6h10a1.32,1.32,0,0,1,1.23.62,1.7,1.7,0,0,0-1.48,1.12H77.7c-.7,0-1.26-.39-1.27-.87S77,53,77.7,53.05ZM75.78,65.49h-4c-.48,0-.88-.27-.89-.61h0V54.74c0-.34.39-.62.88-.62h4a1.87,1.87,0,0,0,1.93,1.16h9.73v9.13H77.7A1.86,1.86,0,0,0,75.78,65.49Zm11.93,1.14h-10c-.69,0-1.27-.36-1.3-.84s.5-.89,1.19-.91h9.86a1.6,1.6,0,0,0,1.46,1.22A1.51,1.51,0,0,1,87.71,66.63Zm3-1.85c0,.49-.57.89-1.27.89s-1.27-.4-1.27-.89V55c0-.49.57-.88,1.27-.88s1.27.39,1.27.88Z" transform="translate(-13.43 -20.44)"/><path class="cls-12" d="M188.69,54.72h9.78A1.7,1.7,0,0,1,200,53.6a1.32,1.32,0,0,0-1.22-.62h-10c-.69,0-1.26.39-1.27.87S188,54.73,188.69,54.72Z" transform="translate(-13.43 -20.44)"/><path class="cls-12" d="M198.45,64.82h-9.76c-.69,0-1.27.35-1.3.83s.51.89,1.2.91h10.12A1.46,1.46,0,0,0,199.9,66,1.58,1.58,0,0,1,198.45,64.82Z" transform="translate(-13.43 -20.44)"/><path class="cls-12" d="M198.4,64.34V55.21h-9.73a1.84,1.84,0,0,1-1.92-1.15h-4c-.49,0-.89.27-.89.61h0V64.82c0,.34.4.61.89.61h4a1.87,1.87,0,0,1,1.93-1.08Z" transform="translate(-13.43 -20.44)"/><path class="cls-12" d="M200.4,54.05c-.7,0-1.26.38-1.27.87v9.8c0,.49.57.89,1.27.89s1.27-.4,1.27-.89v-9.8C201.66,54.43,201.09,54,200.4,54.05Z" transform="translate(-13.43 -20.44)"/><path d="M200.63,53.59a1.94,1.94,0,0,0-1.92-1.08h-10a2,2,0,0,0-1.93,1.07h-4c-.87,0-1.57.49-1.58,1.1V64.82c0,.6.71,1.08,1.57,1.08h4A1.88,1.88,0,0,0,188.67,67h10a2,2,0,0,0,1.87-.94c1-.07,1.76-.65,1.77-1.35v-9.8C202.33,54.24,201.6,53.67,200.63,53.59ZM188.69,53h10a1.3,1.3,0,0,1,1.22.63,1.69,1.69,0,0,0-1.48,1.11h-9.78c-.69,0-1.26-.38-1.27-.87S188,53,188.69,53Zm-1.92,12.45h-4c-.49,0-.89-.27-.9-.61h0V54.68c0-.35.4-.62.88-.62h4a1.88,1.88,0,0,0,1.93,1.15h9.73v9.13h-9.71A1.86,1.86,0,0,0,186.77,65.43Zm11.94,1.13h-10c-.69,0-1.27-.35-1.3-.84s.51-.88,1.2-.9h9.86A1.58,1.58,0,0,0,199.9,66,1.46,1.46,0,0,1,198.71,66.56Zm3-1.84c0,.49-.57.89-1.27.89s-1.27-.4-1.27-.89v-9.8c0-.49.57-.89,1.27-.89s1.27.4,1.27.89Z" transform="translate(-13.43 -20.44)"/><path class="cls-12" d="M216.44,54.72h9.78a1.7,1.7,0,0,1,1.48-1.12,1.32,1.32,0,0,0-1.22-.62h-10c-.69,0-1.26.39-1.27.87S215.75,54.73,216.44,54.72Z" transform="translate(-13.43 -20.44)"/><path class="cls-12" d="M226.19,64.82h-9.75c-.69,0-1.27.35-1.3.83s.51.89,1.19.91h10.12a1.47,1.47,0,0,0,1.2-.53A1.6,1.6,0,0,1,226.19,64.82Z" transform="translate(-13.43 -20.44)"/><path class="cls-12" d="M226.15,64.34V55.21h-9.73a1.87,1.87,0,0,1-1.93-1.15h-4c-.49,0-.89.27-.89.61h0V64.82c0,.34.4.61.89.61h4a1.87,1.87,0,0,1,1.93-1.08Z" transform="translate(-13.43 -20.44)"/><path class="cls-12" d="M228.15,54.05c-.7,0-1.27.38-1.27.87v9.8c0,.49.57.89,1.27.89s1.26-.4,1.26-.89v-9.8C229.41,54.43,228.84,54,228.15,54.05Z" transform="translate(-13.43 -20.44)"/><path d="M228.38,53.59a2,2,0,0,0-1.93-1.08h-10a2,2,0,0,0-1.93,1.07h-4c-.87,0-1.57.49-1.58,1.1V64.82c0,.6.71,1.08,1.57,1.08h4A1.88,1.88,0,0,0,216.42,67h10a2,2,0,0,0,1.88-.94c1-.07,1.76-.65,1.77-1.35v-9.8C230.08,54.24,229.35,53.67,228.38,53.59ZM216.44,53h10a1.3,1.3,0,0,1,1.22.63,1.68,1.68,0,0,0-1.48,1.11h-9.78c-.69,0-1.26-.38-1.27-.87S215.75,53,216.44,53Zm-1.92,12.45h-4c-.49,0-.89-.27-.9-.61h0V54.68c0-.35.4-.62.88-.62h4a1.88,1.88,0,0,0,1.93,1.15h9.73v9.13h-9.71A1.86,1.86,0,0,0,214.52,65.43Zm11.93,1.13h-10c-.69,0-1.27-.35-1.3-.84s.51-.88,1.19-.9h9.86A1.6,1.6,0,0,0,227.65,66,1.47,1.47,0,0,1,226.45,66.56Zm3-1.84c0,.49-.56.89-1.26.89s-1.27-.4-1.27-.89v-9.8c0-.49.57-.89,1.27-.89s1.26.4,1.26.89Z" transform="translate(-13.43 -20.44)"/><path class="cls-12" d="M244.19,54.72H254a1.7,1.7,0,0,1,1.48-1.12,1.33,1.33,0,0,0-1.23-.62h-10c-.7,0-1.26.39-1.27.87S243.49,54.73,244.19,54.72Z" transform="translate(-13.43 -20.44)"/><path class="cls-12" d="M253.94,64.82h-9.75c-.69,0-1.27.35-1.3.83s.5.89,1.19.91H254.2a1.48,1.48,0,0,0,1.2-.53A1.6,1.6,0,0,1,253.94,64.82Z" transform="translate(-13.43 -20.44)"/><path class="cls-12" d="M253.9,64.34V55.21h-9.73a1.87,1.87,0,0,1-1.93-1.15h-4c-.49,0-.89.27-.9.61h0V64.82c0,.34.41.61.9.61h4a1.85,1.85,0,0,1,1.92-1.08Z" transform="translate(-13.43 -20.44)"/><path class="cls-12" d="M255.89,54.05c-.69,0-1.26.38-1.26.87v9.8c0,.49.56.89,1.26.89s1.27-.4,1.27-.89v-9.8C257.16,54.43,256.59,54,255.89,54.05Z" transform="translate(-13.43 -20.44)"/><path d="M256.13,53.59a2,2,0,0,0-1.93-1.08h-10a2,2,0,0,0-1.93,1.07h-4c-.86,0-1.56.49-1.57,1.1V64.82c0,.6.71,1.08,1.57,1.08h4A1.88,1.88,0,0,0,244.17,67h10a2,2,0,0,0,1.88-.94c1-.07,1.76-.65,1.76-1.35v-9.8C257.83,54.24,257.1,53.67,256.13,53.59ZM244.19,53h10a1.32,1.32,0,0,1,1.23.63A1.68,1.68,0,0,0,254,54.72h-9.78c-.7,0-1.26-.38-1.27-.87S243.49,53,244.19,53Zm-1.92,12.45h-4c-.48,0-.88-.27-.89-.61h0V54.68c0-.35.39-.62.88-.62h4a1.88,1.88,0,0,0,1.93,1.15h9.73v9.13h-9.71A1.85,1.85,0,0,0,242.27,65.43Zm11.93,1.13h-10c-.69,0-1.27-.35-1.3-.84s.5-.88,1.19-.9h9.86A1.6,1.6,0,0,0,255.4,66,1.48,1.48,0,0,1,254.2,66.56Zm3-1.84c0,.49-.57.89-1.27.89s-1.26-.4-1.26-.89v-9.8c0-.49.56-.89,1.26-.89s1.27.4,1.27.89Z" transform="translate(-13.43 -20.44)"/><path class="cls-12" d="M271.94,54.72h9.78a1.69,1.69,0,0,1,1.48-1.12A1.33,1.33,0,0,0,282,53h-10c-.7,0-1.27.39-1.27.87S271.24,54.73,271.94,54.72Z" transform="translate(-13.43 -20.44)"/><path class="cls-12" d="M281.69,64.82h-9.75c-.69,0-1.27.35-1.3.83s.5.89,1.19.91H282a1.48,1.48,0,0,0,1.2-.53A1.6,1.6,0,0,1,281.69,64.82Z" transform="translate(-13.43 -20.44)"/><path class="cls-12" d="M281.64,64.34V55.21h-9.72A1.87,1.87,0,0,1,270,54.06h-4c-.49,0-.89.27-.9.61h0V64.82c0,.34.41.61.89.61h4a1.85,1.85,0,0,1,1.92-1.08Z" transform="translate(-13.43 -20.44)"/><path class="cls-12" d="M283.64,54.05c-.69,0-1.26.38-1.27.87v9.8c0,.49.57.89,1.27.89s1.27-.4,1.27-.89v-9.8C284.9,54.43,284.34,54,283.64,54.05Z" transform="translate(-13.43 -20.44)"/><path d="M283.88,53.59A2,2,0,0,0,282,52.51h-10A2,2,0,0,0,270,53.58h-4c-.86,0-1.56.49-1.57,1.1V64.82c0,.6.71,1.08,1.57,1.08h4A1.88,1.88,0,0,0,271.91,67h10a2,2,0,0,0,1.88-.94c1-.07,1.76-.65,1.76-1.35v-9.8C285.58,54.24,284.84,53.67,283.88,53.59ZM271.94,53h10a1.32,1.32,0,0,1,1.23.63,1.67,1.67,0,0,0-1.48,1.11h-9.78c-.7,0-1.27-.38-1.27-.87S271.24,53,271.94,53ZM270,65.43h-4c-.48,0-.88-.27-.89-.61h0V54.68c0-.35.39-.62.88-.62h4a1.86,1.86,0,0,0,1.92,1.15h9.73v9.13h-9.7A1.85,1.85,0,0,0,270,65.43ZM282,66.56h-10c-.69,0-1.27-.35-1.3-.84s.5-.88,1.19-.9h9.86A1.6,1.6,0,0,0,283.15,66,1.48,1.48,0,0,1,282,66.56Zm3-1.84c0,.49-.57.89-1.27.89s-1.27-.4-1.27-.89v-9.8c0-.49.57-.89,1.27-.89s1.27.4,1.27.89Z" transform="translate(-13.43 -20.44)"/><path class="cls-12" d="M299.68,54.72h9.78a1.71,1.71,0,0,1,1.48-1.12,1.31,1.31,0,0,0-1.22-.62h-10c-.69,0-1.26.39-1.26.87S299,54.73,299.68,54.72Z" transform="translate(-13.43 -20.44)"/><path class="cls-12" d="M309.44,64.82h-9.76c-.68,0-1.26.35-1.29.83s.5.89,1.19.91H309.7a1.48,1.48,0,0,0,1.2-.53A1.6,1.6,0,0,1,309.44,64.82Z" transform="translate(-13.43 -20.44)"/><path class="cls-12" d="M309.39,64.34V55.21h-9.72a1.86,1.86,0,0,1-1.93-1.15h-4c-.49,0-.89.27-.9.61h0V64.82c0,.34.41.61.89.61h4a1.88,1.88,0,0,1,1.93-1.08Z" transform="translate(-13.43 -20.44)"/><path class="cls-12" d="M311.39,54.05c-.69,0-1.26.38-1.27.87v9.8c0,.49.57.89,1.27.89s1.27-.4,1.27-.89v-9.8C312.65,54.43,312.08,54,311.39,54.05Z" transform="translate(-13.43 -20.44)"/><path d="M311.62,53.59a1.94,1.94,0,0,0-1.92-1.08h-10a1.94,1.94,0,0,0-1.92,1.07h-4c-.86,0-1.56.49-1.57,1.1V64.82c0,.6.71,1.08,1.56,1.08h4A1.88,1.88,0,0,0,299.66,67h10a2,2,0,0,0,1.88-.94c1-.07,1.76-.65,1.76-1.35v-9.8C313.33,54.24,312.59,53.67,311.62,53.59ZM299.68,53h10a1.29,1.29,0,0,1,1.22.63,1.69,1.69,0,0,0-1.48,1.11h-9.78c-.69,0-1.26-.38-1.26-.87S299,53,299.68,53Zm-1.92,12.45h-4c-.49,0-.89-.27-.89-.61h0V54.68c0-.35.39-.62.88-.62h4a1.86,1.86,0,0,0,1.92,1.15h9.73v9.13h-9.71A1.87,1.87,0,0,0,297.76,65.43Zm11.94,1.13h-10c-.68,0-1.26-.35-1.29-.84s.5-.88,1.19-.9h9.86A1.6,1.6,0,0,0,310.9,66,1.48,1.48,0,0,1,309.7,66.56Zm3-1.84c0,.49-.57.89-1.27.89s-1.27-.4-1.27-.89v-9.8c0-.49.57-.89,1.27-.89s1.27.4,1.27.89Z" transform="translate(-13.43 -20.44)"/><path class="cls-12" d="M327.43,54.72h9.78a1.71,1.71,0,0,1,1.48-1.12,1.31,1.31,0,0,0-1.22-.62h-10c-.69,0-1.26.39-1.27.87S326.74,54.73,327.43,54.72Z" transform="translate(-13.43 -20.44)"/><path class="cls-12" d="M337.19,64.82h-9.76c-.68,0-1.27.35-1.29.83s.5.89,1.19.91h10.12a1.48,1.48,0,0,0,1.2-.53A1.59,1.59,0,0,1,337.19,64.82Z" transform="translate(-13.43 -20.44)"/><path class="cls-12" d="M337.14,64.34V55.21h-9.72a1.85,1.85,0,0,1-1.93-1.15h-4c-.48,0-.88.27-.89.61h0V64.82c0,.34.4.61.89.61h4a1.88,1.88,0,0,1,1.93-1.08Z" transform="translate(-13.43 -20.44)"/><path class="cls-12" d="M339.14,54.05c-.69,0-1.26.38-1.27.87v9.8c0,.49.57.89,1.27.89s1.27-.4,1.27-.89v-9.8C340.4,54.43,339.83,54,339.14,54.05Z" transform="translate(-13.43 -20.44)"/><path d="M339.37,53.59a1.94,1.94,0,0,0-1.92-1.08h-10a1.94,1.94,0,0,0-1.92,1.07h-4c-.87,0-1.56.49-1.58,1.1V64.82c0,.6.71,1.08,1.57,1.08h4A1.89,1.89,0,0,0,327.41,67h10a2,2,0,0,0,1.88-.94c1-.07,1.76-.65,1.76-1.35v-9.8C341.07,54.24,340.34,53.67,339.37,53.59ZM327.43,53h10a1.29,1.29,0,0,1,1.22.63,1.69,1.69,0,0,0-1.48,1.11h-9.78c-.69,0-1.26-.38-1.27-.87S326.74,53,327.43,53Zm-1.92,12.45h-4c-.49,0-.89-.27-.9-.61h0V54.68c0-.35.4-.62.89-.62h4a1.88,1.88,0,0,0,1.93,1.15h9.73v9.13h-9.71A1.87,1.87,0,0,0,325.51,65.43Zm11.94,1.13h-10c-.68,0-1.27-.35-1.29-.84s.5-.88,1.19-.9h9.86A1.59,1.59,0,0,0,338.65,66,1.48,1.48,0,0,1,337.45,66.56Zm3-1.84c0,.49-.57.89-1.27.89s-1.27-.4-1.27-.89v-9.8c0-.49.57-.89,1.27-.89s1.27.4,1.27.89Z" transform="translate(-13.43 -20.44)"/><path class="cls-12" d="M355.18,54.72H365a1.7,1.7,0,0,1,1.48-1.12,1.32,1.32,0,0,0-1.22-.62h-10c-.69,0-1.26.39-1.27.87S354.49,54.73,355.18,54.72Z" transform="translate(-13.43 -20.44)"/><path class="cls-12" d="M364.94,64.82h-9.76c-.69,0-1.27.35-1.3.83s.51.89,1.2.91H365.2a1.45,1.45,0,0,0,1.19-.53A1.58,1.58,0,0,1,364.94,64.82Z" transform="translate(-13.43 -20.44)"/><path class="cls-12" d="M364.89,64.34V55.21h-9.73a1.84,1.84,0,0,1-1.92-1.15h-4c-.48,0-.88.27-.89.61h0V64.82c0,.34.4.61.89.61h4a1.87,1.87,0,0,1,1.93-1.08Z" transform="translate(-13.43 -20.44)"/><path class="cls-12" d="M366.89,54.05c-.7,0-1.26.38-1.27.87v9.8c0,.49.57.89,1.27.89s1.27-.4,1.27-.89v-9.8C368.15,54.43,367.58,54,366.89,54.05Z" transform="translate(-13.43 -20.44)"/><path d="M367.12,53.59a1.94,1.94,0,0,0-1.92-1.08h-10a2,2,0,0,0-1.93,1.07h-4c-.87,0-1.57.49-1.58,1.1V64.82c0,.6.71,1.08,1.57,1.08h4A1.88,1.88,0,0,0,355.16,67h10a2,2,0,0,0,1.88-.94c1-.07,1.75-.65,1.76-1.35v-9.8C368.82,54.24,368.09,53.67,367.12,53.59ZM355.18,53h10a1.3,1.3,0,0,1,1.22.63A1.69,1.69,0,0,0,365,54.72h-9.78c-.69,0-1.26-.38-1.27-.87S354.49,53,355.18,53Zm-1.92,12.45h-4c-.49,0-.89-.27-.9-.61h0V54.68c0-.35.4-.62.88-.62h4a1.88,1.88,0,0,0,1.93,1.15h9.73v9.13h-9.71A1.86,1.86,0,0,0,353.26,65.43Zm11.94,1.13h-10c-.69,0-1.27-.35-1.3-.84s.51-.88,1.2-.9h9.86A1.58,1.58,0,0,0,366.39,66,1.45,1.45,0,0,1,365.2,66.56Zm3-1.84c0,.49-.57.89-1.27.89s-1.27-.4-1.27-.89v-9.8c0-.49.57-.89,1.27-.89s1.27.4,1.27.89Z" transform="translate(-13.43 -20.44)"/><path class="cls-12" d="M382.93,54.72h9.78a1.7,1.7,0,0,1,1.48-1.12A1.32,1.32,0,0,0,393,53h-10c-.69,0-1.26.39-1.27.87S382.24,54.73,382.93,54.72Z" transform="translate(-13.43 -20.44)"/><path class="cls-12" d="M392.68,64.82h-9.75c-.69,0-1.27.35-1.3.83s.51.89,1.2.91h10.11a1.47,1.47,0,0,0,1.2-.53A1.6,1.6,0,0,1,392.68,64.82Z" transform="translate(-13.43 -20.44)"/><path class="cls-12" d="M392.64,64.34V55.21h-9.73A1.87,1.87,0,0,1,381,54.06h-4c-.49,0-.89.27-.89.61h0V64.82c0,.34.4.61.89.61h4a1.87,1.87,0,0,1,1.93-1.08Z" transform="translate(-13.43 -20.44)"/><path class="cls-12" d="M394.64,54.05c-.7,0-1.27.38-1.27.87v9.8c0,.49.57.89,1.27.89s1.27-.4,1.27-.89v-9.8C395.9,54.43,395.33,54,394.64,54.05Z" transform="translate(-13.43 -20.44)"/><path d="M394.87,53.59a2,2,0,0,0-1.93-1.08h-10A2,2,0,0,0,381,53.58h-4c-.87,0-1.57.49-1.58,1.1V64.82c0,.6.71,1.08,1.57,1.08h4A1.88,1.88,0,0,0,382.91,67h10a2,2,0,0,0,1.88-.94c1-.07,1.76-.65,1.77-1.35v-9.8C396.57,54.24,395.84,53.67,394.87,53.59ZM382.93,53h10a1.3,1.3,0,0,1,1.22.63,1.68,1.68,0,0,0-1.48,1.11h-9.78c-.69,0-1.26-.38-1.27-.87S382.24,53,382.93,53ZM381,65.43h-4c-.49,0-.89-.27-.9-.61h0V54.68c0-.35.4-.62.88-.62h4a1.88,1.88,0,0,0,1.93,1.15h9.73v9.13h-9.71A1.86,1.86,0,0,0,381,65.43Zm11.93,1.13h-10c-.69,0-1.27-.35-1.3-.84s.51-.88,1.2-.9h9.85A1.6,1.6,0,0,0,394.14,66,1.47,1.47,0,0,1,392.94,66.56Zm3-1.84c0,.49-.57.89-1.27.89s-1.27-.4-1.27-.89v-9.8c0-.49.57-.89,1.27-.89s1.27.4,1.27.89Z" transform="translate(-13.43 -20.44)"/><path class="cls-12" d="M382.93,69.75h9.78a1.69,1.69,0,0,1,1.48-1.11A1.3,1.3,0,0,0,393,68h-10c-.69,0-1.26.39-1.27.87S382.24,69.76,382.93,69.75Z" transform="translate(-13.43 -20.44)"/><path class="cls-12" d="M392.68,79.85h-9.75c-.69,0-1.27.35-1.3.83s.51.89,1.2.91h10.11a1.46,1.46,0,0,0,1.2-.52A1.62,1.62,0,0,1,392.68,79.85Z" transform="translate(-13.43 -20.44)"/><path class="cls-12" d="M392.64,79.37V70.25h-9.73A1.87,1.87,0,0,1,381,69.09h-4c-.49,0-.89.27-.89.61h0V79.85c0,.34.4.61.89.61h4a1.88,1.88,0,0,1,1.93-1.08Z" transform="translate(-13.43 -20.44)"/><path class="cls-12" d="M394.64,69.08c-.7,0-1.27.39-1.27.87v9.8c0,.49.57.89,1.27.89s1.27-.4,1.27-.89V70C395.9,69.47,395.33,69.08,394.64,69.08Z" transform="translate(-13.43 -20.44)"/><path d="M394.87,68.62a2,2,0,0,0-1.93-1.08h-10A2,2,0,0,0,381,68.61h-4c-.87,0-1.57.49-1.58,1.1V79.85c0,.6.71,1.08,1.57,1.08h4a1.9,1.9,0,0,0,1.93,1.12h10a2,2,0,0,0,1.88-1c1-.07,1.76-.65,1.77-1.35V70C396.57,69.27,395.84,68.7,394.87,68.62ZM382.93,68h10a1.3,1.3,0,0,1,1.22.63,1.71,1.71,0,0,0-1.48,1.11h-9.78c-.69,0-1.26-.38-1.27-.87S382.24,68,382.93,68ZM381,80.46h-4c-.49,0-.89-.27-.9-.61h0V69.71c0-.34.4-.62.88-.62h4a1.88,1.88,0,0,0,1.93,1.15h9.73v9.13h-9.71A1.89,1.89,0,0,0,381,80.46Zm11.93,1.13h-10c-.69,0-1.27-.35-1.3-.83s.51-.89,1.2-.91h9.85a1.62,1.62,0,0,0,1.46,1.22A1.46,1.46,0,0,1,392.94,81.59Zm3-1.84c0,.49-.57.89-1.27.89s-1.27-.4-1.27-.89V70c0-.49.57-.89,1.27-.89s1.27.4,1.27.89Z" transform="translate(-13.43 -20.44)"/><path class="cls-12" d="M160.94,84.79h9.78a1.71,1.71,0,0,1,1.48-1.12A1.29,1.29,0,0,0,171,83h-10c-.69,0-1.26.39-1.27.88S160.25,84.79,160.94,84.79Z" transform="translate(-13.43 -20.44)"/><path class="cls-12" d="M170.7,94.88h-9.76c-.69,0-1.27.35-1.3.84s.51.88,1.2.9H171a1.48,1.48,0,0,0,1.2-.52A1.6,1.6,0,0,1,170.7,94.88Z" transform="translate(-13.43 -20.44)"/><path class="cls-12" d="M170.65,94.4V85.28h-9.73A1.85,1.85,0,0,1,159,84.12h-4c-.48,0-.88.27-.89.61h0V94.88c0,.34.4.61.89.61h4A1.89,1.89,0,0,1,161,94.41Z" transform="translate(-13.43 -20.44)"/><path class="cls-12" d="M172.65,84.11c-.69,0-1.26.39-1.27.87v9.8c0,.49.57.89,1.27.89s1.27-.4,1.27-.89V85C173.91,84.5,173.34,84.11,172.65,84.11Z" transform="translate(-13.43 -20.44)"/><path d="M172.88,83.65A1.94,1.94,0,0,0,171,82.57h-10A1.94,1.94,0,0,0,159,83.64h-4c-.87,0-1.57.49-1.58,1.1V94.88c0,.6.71,1.08,1.57,1.08h4a1.91,1.91,0,0,0,1.93,1.12h10a2.05,2.05,0,0,0,1.88-1c1-.06,1.76-.65,1.76-1.35V85C174.58,84.3,173.85,83.73,172.88,83.65ZM160.94,83h10a1.31,1.31,0,0,1,1.22.63,1.71,1.71,0,0,0-1.48,1.12h-9.78c-.69,0-1.26-.39-1.27-.87S160.25,83,160.94,83ZM159,95.49h-4c-.49,0-.89-.27-.9-.61h0V84.74c0-.34.4-.62.89-.62h4a1.85,1.85,0,0,0,1.93,1.15h9.73V94.4h-9.71A1.89,1.89,0,0,0,159,95.49ZM171,96.62h-10c-.69,0-1.27-.35-1.3-.83s.51-.89,1.2-.91h9.86a1.6,1.6,0,0,0,1.46,1.22A1.48,1.48,0,0,1,171,96.62Zm3-1.84c0,.49-.57.89-1.27.89s-1.27-.4-1.27-.89V85c0-.49.57-.88,1.27-.88s1.27.39,1.27.88Z" transform="translate(-13.43 -20.44)"/><path class="cls-12" d="M133.19,84.79H143a1.71,1.71,0,0,1,1.48-1.12,1.29,1.29,0,0,0-1.22-.63h-10c-.69,0-1.26.39-1.26.88S132.5,84.79,133.19,84.79Z" transform="translate(-13.43 -20.44)"/><path class="cls-12" d="M143,94.88h-9.76c-.68,0-1.27.35-1.29.84s.5.88,1.19.9h10.12a1.48,1.48,0,0,0,1.2-.52A1.61,1.61,0,0,1,143,94.88Z" transform="translate(-13.43 -20.44)"/><path class="cls-12" d="M142.9,94.4V85.28h-9.72a1.86,1.86,0,0,1-1.93-1.16h-4c-.48,0-.88.27-.89.61h0V94.88c0,.34.41.61.89.61h4a1.89,1.89,0,0,1,1.93-1.08Z" transform="translate(-13.43 -20.44)"/><path class="cls-12" d="M144.9,84.11c-.69,0-1.26.39-1.27.87v9.8c0,.49.57.89,1.27.89s1.27-.4,1.27-.89V85C146.16,84.5,145.59,84.11,144.9,84.11Z" transform="translate(-13.43 -20.44)"/><path d="M145.13,83.65a1.94,1.94,0,0,0-1.92-1.08h-10a1.94,1.94,0,0,0-1.92,1.07h-4c-.86,0-1.56.49-1.57,1.1V94.88c0,.6.7,1.08,1.56,1.08h4a1.91,1.91,0,0,0,1.93,1.12h10a2.05,2.05,0,0,0,1.88-1c1-.06,1.76-.65,1.76-1.35V85C146.83,84.3,146.1,83.73,145.13,83.65ZM133.19,83h10a1.31,1.31,0,0,1,1.22.63A1.71,1.71,0,0,0,143,84.79h-9.78c-.69,0-1.26-.39-1.26-.87S132.5,83,133.19,83Zm-1.92,12.45h-4c-.49,0-.89-.27-.89-.61h0V84.74c0-.34.39-.62.88-.62h4a1.85,1.85,0,0,0,1.93,1.15h9.73V94.4h-9.71A1.89,1.89,0,0,0,131.27,95.49Zm11.94,1.13h-10c-.68,0-1.27-.35-1.29-.83s.5-.89,1.19-.91H143a1.61,1.61,0,0,0,1.46,1.22A1.48,1.48,0,0,1,143.21,96.62Zm3-1.84c0,.49-.57.89-1.27.89s-1.27-.4-1.27-.89V85c0-.49.57-.88,1.27-.88s1.27.39,1.27.88Z" transform="translate(-13.43 -20.44)"/><path class="cls-12" d="M105.45,84.79h9.77a1.71,1.71,0,0,1,1.48-1.12,1.29,1.29,0,0,0-1.22-.63h-10c-.7,0-1.27.39-1.27.88S104.75,84.79,105.45,84.79Z" transform="translate(-13.43 -20.44)"/><path class="cls-12" d="M115.2,94.88h-9.75c-.69,0-1.27.35-1.3.84s.5.88,1.19.9h10.12a1.48,1.48,0,0,0,1.2-.52A1.61,1.61,0,0,1,115.2,94.88Z" transform="translate(-13.43 -20.44)"/><path class="cls-12" d="M115.15,94.4V85.28h-9.72a1.87,1.87,0,0,1-1.93-1.16h-4c-.49,0-.89.27-.9.61h0V94.88c0,.34.41.61.89.61h4a1.89,1.89,0,0,1,1.93-1.08Z" transform="translate(-13.43 -20.44)"/><path class="cls-12" d="M117.15,84.11c-.69,0-1.26.39-1.27.87v9.8c0,.49.57.89,1.27.89s1.27-.4,1.27-.89V85C118.41,84.5,117.85,84.11,117.15,84.11Z" transform="translate(-13.43 -20.44)"/><path d="M117.39,83.65a2,2,0,0,0-1.93-1.08h-10a2,2,0,0,0-1.93,1.07h-4c-.86,0-1.56.49-1.57,1.1V94.88c0,.6.71,1.08,1.56,1.08h4a1.89,1.89,0,0,0,1.92,1.12h10a2.05,2.05,0,0,0,1.88-1c1-.06,1.76-.65,1.76-1.35V85C119.09,84.3,118.35,83.73,117.39,83.65ZM105.45,83h10a1.31,1.31,0,0,1,1.22.63,1.71,1.71,0,0,0-1.48,1.12h-9.77c-.7,0-1.27-.39-1.27-.87S104.75,83,105.45,83Zm-1.93,12.45h-4c-.48,0-.89-.27-.89-.61h0V84.74c0-.34.39-.62.88-.62h4a1.84,1.84,0,0,0,1.92,1.15h9.73V94.4h-9.7A1.9,1.9,0,0,0,103.52,95.49Zm11.94,1.13h-10c-.69,0-1.27-.35-1.3-.83s.5-.89,1.19-.91h9.86a1.61,1.61,0,0,0,1.46,1.22A1.48,1.48,0,0,1,115.46,96.62Zm3-1.84c0,.49-.57.89-1.27.89s-1.27-.4-1.27-.89V85c0-.49.57-.88,1.27-.88s1.27.39,1.27.88Z" transform="translate(-13.43 -20.44)"/><path class="cls-12" d="M77.7,84.85h9.78A1.7,1.7,0,0,1,89,83.73a1.33,1.33,0,0,0-1.23-.62h-10c-.7,0-1.26.39-1.27.87S77,84.86,77.7,84.85Z" transform="translate(-13.43 -20.44)"/><path class="cls-12" d="M87.45,95H77.7c-.69,0-1.27.35-1.3.83s.5.89,1.19.91H87.71a1.48,1.48,0,0,0,1.2-.53A1.6,1.6,0,0,1,87.45,95Z" transform="translate(-13.43 -20.44)"/><path class="cls-12" d="M87.41,94.47V85.34H77.68a1.87,1.87,0,0,1-1.93-1.15h-4c-.49,0-.89.27-.9.61h0V95c0,.34.41.61.9.61h4a1.85,1.85,0,0,1,1.92-1.08Z" transform="translate(-13.43 -20.44)"/><path class="cls-12" d="M89.4,84.18c-.69,0-1.26.38-1.27.87v9.8c0,.49.57.89,1.27.89s1.27-.4,1.27-.89v-9.8C90.67,84.56,90.1,84.17,89.4,84.18Z" transform="translate(-13.43 -20.44)"/><path d="M89.64,83.72a2,2,0,0,0-1.93-1.08h-10a2,2,0,0,0-1.93,1.07h-4c-.86,0-1.56.49-1.57,1.1V95c0,.6.71,1.08,1.57,1.08h4a1.88,1.88,0,0,0,1.93,1.11h10a2,2,0,0,0,1.88-.94c1-.07,1.76-.65,1.76-1.35v-9.8C91.34,84.37,90.6,83.8,89.64,83.72ZM77.7,83.11h10a1.32,1.32,0,0,1,1.23.63,1.68,1.68,0,0,0-1.48,1.11H77.7c-.7,0-1.26-.38-1.27-.87S77,83.11,77.7,83.11ZM75.78,95.56h-4c-.48,0-.88-.27-.89-.61h0V84.81c0-.35.39-.62.88-.62h4a1.88,1.88,0,0,0,1.93,1.15h9.73v9.13H77.7A1.85,1.85,0,0,0,75.78,95.56Zm11.93,1.13h-10c-.69,0-1.27-.35-1.3-.84s.5-.88,1.19-.9h9.86a1.6,1.6,0,0,0,1.46,1.21A1.48,1.48,0,0,1,87.71,96.69Zm3-1.84c0,.49-.57.89-1.27.89s-1.27-.4-1.27-.89v-9.8c0-.49.57-.89,1.27-.89s1.27.4,1.27.89Z" transform="translate(-13.43 -20.44)"/><path class="cls-12" d="M188.69,84.79h9.78A1.7,1.7,0,0,1,200,83.67a1.3,1.3,0,0,0-1.22-.63h-10c-.69,0-1.26.39-1.27.88S188,84.79,188.69,84.79Z" transform="translate(-13.43 -20.44)"/><path class="cls-12" d="M198.45,94.88h-9.76c-.69,0-1.27.35-1.3.84s.51.88,1.2.9h10.12a1.46,1.46,0,0,0,1.19-.52A1.59,1.59,0,0,1,198.45,94.88Z" transform="translate(-13.43 -20.44)"/><path class="cls-12" d="M198.4,94.4V85.28h-9.73a1.85,1.85,0,0,1-1.92-1.16h-4c-.49,0-.89.27-.89.61h0V94.88c0,.34.4.61.89.61h4a1.88,1.88,0,0,1,1.93-1.08Z" transform="translate(-13.43 -20.44)"/><path class="cls-12" d="M200.4,84.11c-.7,0-1.26.39-1.27.87v9.8c0,.49.57.89,1.27.89s1.27-.4,1.27-.89V85C201.66,84.5,201.09,84.11,200.4,84.11Z" transform="translate(-13.43 -20.44)"/><path d="M200.63,83.65a1.94,1.94,0,0,0-1.92-1.08h-10a2,2,0,0,0-1.93,1.07h-4c-.87,0-1.57.49-1.58,1.1V94.88c0,.6.71,1.08,1.57,1.08h4a1.9,1.9,0,0,0,1.93,1.12h10a2,2,0,0,0,1.87-1c1-.06,1.76-.65,1.77-1.35V85C202.33,84.3,201.6,83.73,200.63,83.65ZM188.69,83h10a1.32,1.32,0,0,1,1.22.63,1.71,1.71,0,0,0-1.48,1.12h-9.78c-.69,0-1.26-.39-1.27-.87S188,83,188.69,83Zm-1.92,12.45h-4c-.49,0-.89-.27-.9-.61h0V84.74c0-.34.4-.62.88-.62h4a1.85,1.85,0,0,0,1.93,1.15h9.73V94.4h-9.71A1.89,1.89,0,0,0,186.77,95.49Zm11.94,1.13h-10c-.69,0-1.27-.35-1.3-.83s.51-.89,1.2-.91h9.86a1.59,1.59,0,0,0,1.45,1.22A1.46,1.46,0,0,1,198.71,96.62Zm3-1.84c0,.49-.57.89-1.27.89s-1.27-.4-1.27-.89V85c0-.49.57-.88,1.27-.88s1.27.39,1.27.88Z" transform="translate(-13.43 -20.44)"/><path class="cls-12" d="M216.44,84.79h9.78a1.7,1.7,0,0,1,1.48-1.12,1.3,1.3,0,0,0-1.22-.63h-10c-.69,0-1.26.39-1.27.88S215.75,84.79,216.44,84.79Z" transform="translate(-13.43 -20.44)"/><path class="cls-12" d="M226.19,94.88h-9.75c-.69,0-1.27.35-1.3.84s.51.88,1.19.9h10.12a1.46,1.46,0,0,0,1.2-.52A1.61,1.61,0,0,1,226.19,94.88Z" transform="translate(-13.43 -20.44)"/><path class="cls-12" d="M226.15,94.4V85.28h-9.73a1.87,1.87,0,0,1-1.93-1.16h-4c-.49,0-.89.27-.89.61h0V94.88c0,.34.4.61.89.61h4a1.88,1.88,0,0,1,1.93-1.08Z" transform="translate(-13.43 -20.44)"/><path class="cls-12" d="M228.15,84.11c-.7,0-1.27.39-1.27.87v9.8c0,.49.57.89,1.27.89s1.26-.4,1.26-.89V85C229.41,84.5,228.84,84.11,228.15,84.11Z" transform="translate(-13.43 -20.44)"/><path d="M228.38,83.65a2,2,0,0,0-1.93-1.08h-10a2,2,0,0,0-1.93,1.07h-4c-.87,0-1.57.49-1.58,1.1V94.88c0,.6.71,1.08,1.57,1.08h4a1.9,1.9,0,0,0,1.93,1.12h10a2,2,0,0,0,1.88-1c1-.06,1.76-.65,1.77-1.35V85C230.08,84.3,229.35,83.73,228.38,83.65ZM216.44,83h10a1.32,1.32,0,0,1,1.22.63,1.7,1.7,0,0,0-1.48,1.12h-9.78c-.69,0-1.26-.39-1.27-.87S215.75,83,216.44,83Zm-1.92,12.45h-4c-.49,0-.89-.27-.9-.61h0V84.74c0-.34.4-.62.88-.62h4a1.85,1.85,0,0,0,1.93,1.15h9.73V94.4h-9.71A1.89,1.89,0,0,0,214.52,95.49Zm11.93,1.13h-10c-.69,0-1.27-.35-1.3-.83s.51-.89,1.19-.91h9.86a1.61,1.61,0,0,0,1.46,1.22A1.46,1.46,0,0,1,226.45,96.62Zm3-1.84c0,.49-.56.89-1.26.89s-1.27-.4-1.27-.89V85c0-.49.57-.88,1.27-.88s1.26.39,1.26.88Z" transform="translate(-13.43 -20.44)"/><path class="cls-12" d="M244.19,84.79H254a1.7,1.7,0,0,1,1.48-1.12,1.32,1.32,0,0,0-1.23-.63h-10c-.7,0-1.26.39-1.27.88S243.49,84.79,244.19,84.79Z" transform="translate(-13.43 -20.44)"/><path class="cls-12" d="M253.94,94.88h-9.75c-.69,0-1.27.35-1.3.84s.5.88,1.19.9H254.2a1.48,1.48,0,0,0,1.2-.52A1.61,1.61,0,0,1,253.94,94.88Z" transform="translate(-13.43 -20.44)"/><path class="cls-12" d="M253.9,94.4V85.28h-9.73a1.87,1.87,0,0,1-1.93-1.16h-4c-.49,0-.89.27-.9.61h0V94.88c0,.34.41.61.9.61h4a1.87,1.87,0,0,1,1.92-1.08Z" transform="translate(-13.43 -20.44)"/><path class="cls-12" d="M255.89,84.11c-.69,0-1.26.39-1.26.87v9.8c0,.49.56.89,1.26.89s1.27-.4,1.27-.89V85C257.16,84.5,256.59,84.11,255.89,84.11Z" transform="translate(-13.43 -20.44)"/><path d="M256.13,83.65a2,2,0,0,0-1.93-1.08h-10a2,2,0,0,0-1.93,1.07h-4c-.86,0-1.56.49-1.57,1.1V94.88c0,.6.71,1.08,1.57,1.08h4a1.9,1.9,0,0,0,1.93,1.12h10a2,2,0,0,0,1.88-1c1-.06,1.76-.65,1.76-1.35V85C257.83,84.3,257.1,83.73,256.13,83.65ZM244.19,83h10a1.34,1.34,0,0,1,1.23.63A1.7,1.7,0,0,0,254,84.79h-9.78c-.7,0-1.26-.39-1.27-.87S243.49,83,244.19,83Zm-1.92,12.45h-4c-.48,0-.88-.27-.89-.61h0V84.74c0-.34.39-.62.88-.62h4a1.85,1.85,0,0,0,1.93,1.15h9.73V94.4h-9.71A1.88,1.88,0,0,0,242.27,95.49Zm11.93,1.13h-10c-.69,0-1.27-.35-1.3-.83s.5-.89,1.19-.91h9.86a1.61,1.61,0,0,0,1.46,1.22A1.48,1.48,0,0,1,254.2,96.62Zm3-1.84c0,.49-.57.89-1.27.89s-1.26-.4-1.26-.89V85c0-.49.56-.88,1.26-.88s1.27.39,1.27.88Z" transform="translate(-13.43 -20.44)"/><path class="cls-12" d="M271.94,84.79h9.78a1.69,1.69,0,0,1,1.48-1.12A1.32,1.32,0,0,0,282,83h-10c-.7,0-1.27.39-1.27.88S271.24,84.79,271.94,84.79Z" transform="translate(-13.43 -20.44)"/><path class="cls-12" d="M281.69,94.88h-9.75c-.69,0-1.27.35-1.3.84s.5.88,1.19.9H282a1.48,1.48,0,0,0,1.2-.52A1.61,1.61,0,0,1,281.69,94.88Z" transform="translate(-13.43 -20.44)"/><path class="cls-12" d="M281.64,94.4V85.28h-9.72A1.87,1.87,0,0,1,270,84.12h-4c-.49,0-.89.27-.9.61h0V94.88c0,.34.41.61.89.61h4a1.87,1.87,0,0,1,1.92-1.08Z" transform="translate(-13.43 -20.44)"/><path class="cls-12" d="M283.64,84.11c-.69,0-1.26.39-1.27.87v9.8c0,.49.57.89,1.27.89s1.27-.4,1.27-.89V85C284.9,84.5,284.34,84.11,283.64,84.11Z" transform="translate(-13.43 -20.44)"/><path d="M283.88,83.65A2,2,0,0,0,282,82.57h-10A2,2,0,0,0,270,83.64h-4c-.86,0-1.56.49-1.57,1.1V94.88c0,.6.71,1.08,1.57,1.08h4a1.89,1.89,0,0,0,1.92,1.12h10a2,2,0,0,0,1.88-1c1-.06,1.76-.65,1.76-1.35V85C285.58,84.3,284.84,83.73,283.88,83.65ZM271.94,83h10a1.34,1.34,0,0,1,1.23.63,1.69,1.69,0,0,0-1.48,1.12h-9.78c-.7,0-1.27-.39-1.27-.87S271.24,83,271.94,83ZM270,95.49h-4c-.48,0-.88-.27-.89-.61h0V84.74c0-.34.39-.62.88-.62h4a1.84,1.84,0,0,0,1.92,1.15h9.73V94.4h-9.7A1.88,1.88,0,0,0,270,95.49ZM282,96.62h-10c-.69,0-1.27-.35-1.3-.83s.5-.89,1.19-.91h9.86a1.61,1.61,0,0,0,1.46,1.22A1.48,1.48,0,0,1,282,96.62Zm3-1.84c0,.49-.57.89-1.27.89s-1.27-.4-1.27-.89V85c0-.49.57-.88,1.27-.88s1.27.39,1.27.88Z" transform="translate(-13.43 -20.44)"/><path class="cls-12" d="M299.68,84.79h9.78a1.71,1.71,0,0,1,1.48-1.12,1.29,1.29,0,0,0-1.22-.63h-10c-.69,0-1.26.39-1.26.88S299,84.79,299.68,84.79Z" transform="translate(-13.43 -20.44)"/><path class="cls-12" d="M309.44,94.88h-9.76c-.68,0-1.26.35-1.29.84s.5.88,1.19.9H309.7a1.48,1.48,0,0,0,1.2-.52A1.61,1.61,0,0,1,309.44,94.88Z" transform="translate(-13.43 -20.44)"/><path class="cls-12" d="M309.39,94.4V85.28h-9.72a1.86,1.86,0,0,1-1.93-1.16h-4c-.49,0-.89.27-.9.61h0V94.88c0,.34.41.61.89.61h4a1.89,1.89,0,0,1,1.93-1.08Z" transform="translate(-13.43 -20.44)"/><path class="cls-12" d="M311.39,84.11c-.69,0-1.26.39-1.27.87v9.8c0,.49.57.89,1.27.89s1.27-.4,1.27-.89V85C312.65,84.5,312.08,84.11,311.39,84.11Z" transform="translate(-13.43 -20.44)"/><path d="M311.62,83.65a1.94,1.94,0,0,0-1.92-1.08h-10a1.94,1.94,0,0,0-1.92,1.07h-4c-.86,0-1.56.49-1.57,1.1V94.88c0,.6.71,1.08,1.56,1.08h4a1.89,1.89,0,0,0,1.92,1.12h10a2.05,2.05,0,0,0,1.88-1c1-.06,1.76-.65,1.76-1.35V85C313.33,84.3,312.59,83.73,311.62,83.65ZM299.68,83h10a1.31,1.31,0,0,1,1.22.63,1.71,1.71,0,0,0-1.48,1.12h-9.78c-.69,0-1.26-.39-1.26-.87S299,83,299.68,83Zm-1.92,12.45h-4c-.49,0-.89-.27-.89-.61h0V84.74c0-.34.39-.62.88-.62h4a1.83,1.83,0,0,0,1.92,1.15h9.73V94.4h-9.71A1.89,1.89,0,0,0,297.76,95.49Zm11.94,1.13h-10c-.68,0-1.26-.35-1.29-.83s.5-.89,1.19-.91h9.86a1.61,1.61,0,0,0,1.46,1.22A1.48,1.48,0,0,1,309.7,96.62Zm3-1.84c0,.49-.57.89-1.27.89s-1.27-.4-1.27-.89V85c0-.49.57-.88,1.27-.88s1.27.39,1.27.88Z" transform="translate(-13.43 -20.44)"/><path class="cls-12" d="M327.43,84.79h9.78a1.71,1.71,0,0,1,1.48-1.12,1.29,1.29,0,0,0-1.22-.63h-10c-.69,0-1.26.39-1.27.88S326.74,84.79,327.43,84.79Z" transform="translate(-13.43 -20.44)"/><path class="cls-12" d="M337.19,94.88h-9.76c-.68,0-1.27.35-1.29.84s.5.88,1.19.9h10.12a1.48,1.48,0,0,0,1.2-.52A1.6,1.6,0,0,1,337.19,94.88Z" transform="translate(-13.43 -20.44)"/><path class="cls-12" d="M337.14,94.4V85.28h-9.72a1.85,1.85,0,0,1-1.93-1.16h-4c-.48,0-.88.27-.89.61h0V94.88c0,.34.4.61.89.61h4a1.89,1.89,0,0,1,1.93-1.08Z" transform="translate(-13.43 -20.44)"/><path class="cls-12" d="M339.14,84.11c-.69,0-1.26.39-1.27.87v9.8c0,.49.57.89,1.27.89s1.27-.4,1.27-.89V85C340.4,84.5,339.83,84.11,339.14,84.11Z" transform="translate(-13.43 -20.44)"/><path d="M339.37,83.65a1.94,1.94,0,0,0-1.92-1.08h-10a1.94,1.94,0,0,0-1.92,1.07h-4c-.87,0-1.56.49-1.58,1.1V94.88c0,.6.71,1.08,1.57,1.08h4a1.91,1.91,0,0,0,1.93,1.12h10a2.05,2.05,0,0,0,1.88-1c1-.06,1.76-.65,1.76-1.35V85C341.07,84.3,340.34,83.73,339.37,83.65ZM327.43,83h10a1.31,1.31,0,0,1,1.22.63,1.71,1.71,0,0,0-1.48,1.12h-9.78c-.69,0-1.26-.39-1.27-.87S326.74,83,327.43,83Zm-1.92,12.45h-4c-.49,0-.89-.27-.9-.61h0V84.74c0-.34.4-.62.89-.62h4a1.85,1.85,0,0,0,1.93,1.15h9.73V94.4h-9.71A1.89,1.89,0,0,0,325.51,95.49Zm11.94,1.13h-10c-.68,0-1.27-.35-1.29-.83s.5-.89,1.19-.91h9.86a1.6,1.6,0,0,0,1.46,1.22A1.48,1.48,0,0,1,337.45,96.62Zm3-1.84c0,.49-.57.89-1.27.89s-1.27-.4-1.27-.89V85c0-.49.57-.88,1.27-.88s1.27.39,1.27.88Z" transform="translate(-13.43 -20.44)"/><path class="cls-12" d="M355.18,84.79H365a1.7,1.7,0,0,1,1.48-1.12,1.3,1.3,0,0,0-1.22-.63h-10c-.69,0-1.26.39-1.27.88S354.49,84.79,355.18,84.79Z" transform="translate(-13.43 -20.44)"/><path class="cls-12" d="M364.94,94.88h-9.76c-.69,0-1.27.35-1.3.84s.51.88,1.2.9H365.2a1.44,1.44,0,0,0,1.19-.52A1.59,1.59,0,0,1,364.94,94.88Z" transform="translate(-13.43 -20.44)"/><path class="cls-12" d="M364.89,94.4V85.28h-9.73a1.85,1.85,0,0,1-1.92-1.16h-4c-.48,0-.88.27-.89.61h0V94.88c0,.34.4.61.89.61h4a1.88,1.88,0,0,1,1.93-1.08Z" transform="translate(-13.43 -20.44)"/><path class="cls-12" d="M366.89,84.11c-.7,0-1.26.39-1.27.87v9.8c0,.49.57.89,1.27.89s1.27-.4,1.27-.89V85C368.15,84.5,367.58,84.11,366.89,84.11Z" transform="translate(-13.43 -20.44)"/><path d="M367.12,83.65a1.94,1.94,0,0,0-1.92-1.08h-10a2,2,0,0,0-1.93,1.07h-4c-.87,0-1.57.49-1.58,1.1V94.88c0,.6.71,1.08,1.57,1.08h4a1.9,1.9,0,0,0,1.93,1.12h10a2.05,2.05,0,0,0,1.88-1c1-.06,1.75-.65,1.76-1.35V85C368.82,84.3,368.09,83.73,367.12,83.65ZM355.18,83h10a1.32,1.32,0,0,1,1.22.63A1.71,1.71,0,0,0,365,84.79h-9.78c-.69,0-1.26-.39-1.27-.87S354.49,83,355.18,83Zm-1.92,12.45h-4c-.49,0-.89-.27-.9-.61h0V84.74c0-.34.4-.62.88-.62h4a1.85,1.85,0,0,0,1.93,1.15h9.73V94.4h-9.71A1.89,1.89,0,0,0,353.26,95.49Zm11.94,1.13h-10c-.69,0-1.27-.35-1.3-.83s.51-.89,1.2-.91h9.86a1.59,1.59,0,0,0,1.45,1.22A1.44,1.44,0,0,1,365.2,96.62Zm3-1.84c0,.49-.57.89-1.27.89s-1.27-.4-1.27-.89V85c0-.49.57-.88,1.27-.88s1.27.39,1.27.88Z" transform="translate(-13.43 -20.44)"/><path class="cls-12" d="M382.93,84.79h9.78a1.7,1.7,0,0,1,1.48-1.12A1.3,1.3,0,0,0,393,83h-10c-.69,0-1.26.39-1.27.88S382.24,84.79,382.93,84.79Z" transform="translate(-13.43 -20.44)"/><path class="cls-12" d="M392.68,94.88h-9.75c-.69,0-1.27.35-1.3.84s.51.88,1.2.9h10.11a1.46,1.46,0,0,0,1.2-.52A1.61,1.61,0,0,1,392.68,94.88Z" transform="translate(-13.43 -20.44)"/><path class="cls-12" d="M392.64,94.4V85.28h-9.73A1.87,1.87,0,0,1,381,84.12h-4c-.49,0-.89.27-.89.61h0V94.88c0,.34.4.61.89.61h4a1.88,1.88,0,0,1,1.93-1.08Z" transform="translate(-13.43 -20.44)"/><path class="cls-12" d="M394.64,84.11c-.7,0-1.27.39-1.27.87v9.8c0,.49.57.89,1.27.89s1.27-.4,1.27-.89V85C395.9,84.5,395.33,84.11,394.64,84.11Z" transform="translate(-13.43 -20.44)"/><path d="M394.87,83.65a2,2,0,0,0-1.93-1.08h-10A2,2,0,0,0,381,83.64h-4c-.87,0-1.57.49-1.58,1.1V94.88c0,.6.71,1.08,1.57,1.08h4a1.9,1.9,0,0,0,1.93,1.12h10a2,2,0,0,0,1.88-1c1-.06,1.76-.65,1.77-1.35V85C396.57,84.3,395.84,83.73,394.87,83.65ZM382.93,83h10a1.32,1.32,0,0,1,1.22.63,1.7,1.7,0,0,0-1.48,1.12h-9.78c-.69,0-1.26-.39-1.27-.87S382.24,83,382.93,83ZM381,95.49h-4c-.49,0-.89-.27-.9-.61h0V84.74c0-.34.4-.62.88-.62h4a1.85,1.85,0,0,0,1.93,1.15h9.73V94.4h-9.71A1.89,1.89,0,0,0,381,95.49Zm11.93,1.13h-10c-.69,0-1.27-.35-1.3-.83s.51-.89,1.2-.91h9.85a1.61,1.61,0,0,0,1.46,1.22A1.46,1.46,0,0,1,392.94,96.62Zm3-1.84c0,.49-.57.89-1.27.89s-1.27-.4-1.27-.89V85c0-.49.57-.88,1.27-.88s1.27.39,1.27.88Z" transform="translate(-13.43 -20.44)"/><path class="cls-12" d="M160.94,99.82h9.78a1.71,1.71,0,0,1,1.48-1.12,1.29,1.29,0,0,0-1.22-.62h-10c-.69,0-1.26.38-1.27.87S160.25,99.82,160.94,99.82Z" transform="translate(-13.43 -20.44)"/><path class="cls-12" d="M170.7,109.91h-9.76c-.69,0-1.27.36-1.3.84s.51.89,1.2.91H171a1.51,1.51,0,0,0,1.2-.53A1.59,1.59,0,0,1,170.7,109.91Z" transform="translate(-13.43 -20.44)"/><path class="cls-12" d="M170.65,109.44v-9.13h-9.73A1.86,1.86,0,0,1,159,99.16h-4c-.48,0-.88.26-.89.6h0v10.14c0,.34.4.62.89.61h4a1.89,1.89,0,0,1,1.93-1.08Z" transform="translate(-13.43 -20.44)"/><path class="cls-12" d="M172.65,99.14c-.69,0-1.26.39-1.27.88v9.79c0,.49.57.89,1.27.89s1.27-.4,1.27-.89V100C173.91,99.53,173.34,99.14,172.65,99.14Z" transform="translate(-13.43 -20.44)"/><path d="M172.88,98.68A1.94,1.94,0,0,0,171,97.6h-10A2,2,0,0,0,159,98.67h-4c-.87,0-1.57.5-1.58,1.1v10.14c0,.6.71,1.09,1.57,1.08h4a1.91,1.91,0,0,0,1.93,1.12h10a2.05,2.05,0,0,0,1.88-1c1-.06,1.76-.65,1.76-1.35V100C174.58,99.33,173.85,98.76,172.88,98.68Zm-11.94-.6h10a1.29,1.29,0,0,1,1.22.62,1.71,1.71,0,0,0-1.48,1.12h-9.78c-.69,0-1.26-.39-1.27-.87S160.25,98.07,160.94,98.08ZM159,110.52h-4c-.49,0-.89-.26-.9-.61h0V99.77c0-.34.4-.61.89-.61h4a1.88,1.88,0,0,0,1.93,1.15h9.73v9.13h-9.71A1.87,1.87,0,0,0,159,110.52ZM171,111.66h-10c-.69,0-1.27-.36-1.3-.84s.51-.89,1.2-.91h9.86a1.59,1.59,0,0,0,1.46,1.22A1.51,1.51,0,0,1,171,111.66Zm3-1.85c0,.49-.57.89-1.27.89s-1.27-.4-1.27-.89V100c0-.49.57-.89,1.27-.89s1.27.4,1.27.89Z" transform="translate(-13.43 -20.44)"/><path class="cls-12" d="M133.19,99.82H143a1.71,1.71,0,0,1,1.48-1.12,1.29,1.29,0,0,0-1.22-.62h-10c-.69,0-1.26.38-1.26.87S132.5,99.82,133.19,99.82Z" transform="translate(-13.43 -20.44)"/><path class="cls-12" d="M143,109.91h-9.76c-.68,0-1.27.36-1.29.84s.5.89,1.19.91h10.12a1.51,1.51,0,0,0,1.2-.53A1.6,1.6,0,0,1,143,109.91Z" transform="translate(-13.43 -20.44)"/><path class="cls-12" d="M142.9,109.44v-9.13h-9.72a1.87,1.87,0,0,1-1.93-1.15h-4c-.48,0-.88.26-.89.6h0v10.14c0,.34.41.62.89.61h4a1.89,1.89,0,0,1,1.93-1.08Z" transform="translate(-13.43 -20.44)"/><path class="cls-12" d="M144.9,99.14c-.69,0-1.26.39-1.27.88v9.79c0,.49.57.89,1.27.89s1.27-.4,1.27-.89V100C146.16,99.53,145.59,99.14,144.9,99.14Z" transform="translate(-13.43 -20.44)"/><path d="M145.13,98.68a1.94,1.94,0,0,0-1.92-1.08h-10a2,2,0,0,0-1.92,1.07h-4c-.86,0-1.56.5-1.57,1.1v10.14c0,.6.7,1.09,1.56,1.08h4a1.91,1.91,0,0,0,1.93,1.12h10a2.05,2.05,0,0,0,1.88-1c1-.06,1.76-.65,1.76-1.35V100C146.83,99.33,146.1,98.76,145.13,98.68Zm-11.94-.6h10a1.29,1.29,0,0,1,1.22.62A1.71,1.71,0,0,0,143,99.82h-9.78c-.69,0-1.26-.39-1.26-.87S132.5,98.07,133.19,98.08Zm-1.92,12.44h-4c-.49,0-.89-.26-.89-.61h0V99.77c0-.34.39-.61.88-.61h4a1.88,1.88,0,0,0,1.93,1.15h9.73v9.13h-9.71A1.87,1.87,0,0,0,131.27,110.52Zm11.94,1.14h-10c-.68,0-1.27-.36-1.29-.84s.5-.89,1.19-.91H143a1.6,1.6,0,0,0,1.46,1.22A1.51,1.51,0,0,1,143.21,111.66Zm3-1.85c0,.49-.57.89-1.27.89s-1.27-.4-1.27-.89V100c0-.49.57-.89,1.27-.89s1.27.4,1.27.89Z" transform="translate(-13.43 -20.44)"/><path class="cls-12" d="M105.45,99.82h9.77a1.71,1.71,0,0,1,1.48-1.12,1.29,1.29,0,0,0-1.22-.62h-10c-.7,0-1.27.38-1.27.87S104.75,99.82,105.45,99.82Z" transform="translate(-13.43 -20.44)"/><path class="cls-12" d="M115.2,109.91h-9.75c-.69,0-1.27.36-1.3.84s.5.89,1.19.91h10.12a1.51,1.51,0,0,0,1.2-.53A1.6,1.6,0,0,1,115.2,109.91Z" transform="translate(-13.43 -20.44)"/><path class="cls-12" d="M115.15,109.44v-9.13h-9.72a1.88,1.88,0,0,1-1.93-1.15h-4c-.49,0-.89.26-.9.6h0v10.14c0,.34.41.62.89.61h4a1.89,1.89,0,0,1,1.93-1.08Z" transform="translate(-13.43 -20.44)"/><path class="cls-12" d="M117.15,99.14c-.69,0-1.26.39-1.27.88v9.79c0,.49.57.89,1.27.89s1.27-.4,1.27-.89V100C118.41,99.53,117.85,99.14,117.15,99.14Z" transform="translate(-13.43 -20.44)"/><path d="M117.39,98.68a2,2,0,0,0-1.93-1.08h-10a2,2,0,0,0-1.93,1.07h-4c-.86,0-1.56.5-1.57,1.1v10.14c0,.6.71,1.09,1.56,1.08h4a1.89,1.89,0,0,0,1.92,1.12h10a2.05,2.05,0,0,0,1.88-1c1-.06,1.76-.65,1.76-1.35V100C119.09,99.33,118.35,98.76,117.39,98.68Zm-11.94-.6h10a1.29,1.29,0,0,1,1.22.62,1.71,1.71,0,0,0-1.48,1.12h-9.77c-.7,0-1.27-.39-1.27-.87S104.75,98.07,105.45,98.08Zm-1.93,12.44h-4c-.48,0-.89-.26-.89-.61h0V99.77c0-.34.39-.61.88-.61h4a1.86,1.86,0,0,0,1.92,1.15h9.73v9.13h-9.7A1.88,1.88,0,0,0,103.52,110.52Zm11.94,1.14h-10c-.69,0-1.27-.36-1.3-.84s.5-.89,1.19-.91h9.86a1.6,1.6,0,0,0,1.46,1.22A1.51,1.51,0,0,1,115.46,111.66Zm3-1.85c0,.49-.57.89-1.27.89s-1.27-.4-1.27-.89V100c0-.49.57-.89,1.27-.89s1.27.4,1.27.89Z" transform="translate(-13.43 -20.44)"/><path class="cls-12" d="M77.7,99.88h9.78A1.69,1.69,0,0,1,89,98.77a1.32,1.32,0,0,0-1.23-.63h-10c-.7,0-1.26.39-1.27.87S77,99.89,77.7,99.88Z" transform="translate(-13.43 -20.44)"/><path class="cls-12" d="M87.45,110H77.7c-.69,0-1.27.35-1.3.83s.5.89,1.19.91H87.71a1.48,1.48,0,0,0,1.2-.52A1.62,1.62,0,0,1,87.45,110Z" transform="translate(-13.43 -20.44)"/><path class="cls-12" d="M87.41,109.5v-9.12H77.68a1.87,1.87,0,0,1-1.93-1.16h-4c-.49,0-.89.27-.9.61h0V110c0,.34.41.61.9.61h4a1.87,1.87,0,0,1,1.92-1.08Z" transform="translate(-13.43 -20.44)"/><path class="cls-12" d="M89.4,99.21c-.69,0-1.26.39-1.27.87v9.8c0,.49.57.89,1.27.89s1.27-.4,1.27-.89v-9.8C90.67,99.6,90.1,99.21,89.4,99.21Z" transform="translate(-13.43 -20.44)"/><path d="M89.64,98.75a2,2,0,0,0-1.93-1.08h-10a2,2,0,0,0-1.93,1.07h-4c-.86,0-1.56.49-1.57,1.1V110c0,.6.71,1.08,1.57,1.08h4a1.9,1.9,0,0,0,1.93,1.12h10a2,2,0,0,0,1.88-1c1-.07,1.76-.65,1.76-1.35v-9.8C91.34,99.4,90.6,98.83,89.64,98.75ZM77.7,98.14h10a1.32,1.32,0,0,1,1.23.63,1.71,1.71,0,0,0-1.48,1.11H77.7c-.7,0-1.26-.38-1.27-.87S77,98.14,77.7,98.14Zm-1.92,12.45h-4c-.48,0-.88-.27-.89-.61h0V99.84c0-.34.39-.62.88-.62h4a1.88,1.88,0,0,0,1.93,1.15h9.73v9.13H77.7A1.88,1.88,0,0,0,75.78,110.59Zm11.93,1.13h-10c-.69,0-1.27-.35-1.3-.83s.5-.89,1.19-.91h9.86a1.62,1.62,0,0,0,1.46,1.22A1.48,1.48,0,0,1,87.71,111.72Zm3-1.84c0,.49-.57.89-1.27.89s-1.27-.4-1.27-.89v-9.8c0-.49.57-.89,1.27-.89s1.27.4,1.27.89Z" transform="translate(-13.43 -20.44)"/><path class="cls-12" d="M188.69,99.82h9.78A1.7,1.7,0,0,1,200,98.7a1.3,1.3,0,0,0-1.22-.62h-10c-.69,0-1.26.38-1.27.87S188,99.82,188.69,99.82Z" transform="translate(-13.43 -20.44)"/><path class="cls-12" d="M198.45,109.91h-9.76c-.69,0-1.27.36-1.3.84s.51.89,1.2.91h10.12a1.49,1.49,0,0,0,1.19-.53A1.58,1.58,0,0,1,198.45,109.91Z" transform="translate(-13.43 -20.44)"/><path class="cls-12" d="M198.4,109.44v-9.13h-9.73a1.86,1.86,0,0,1-1.92-1.15h-4c-.49,0-.89.26-.89.6h0v10.14c0,.34.4.62.89.61h4a1.88,1.88,0,0,1,1.93-1.08Z" transform="translate(-13.43 -20.44)"/><path class="cls-12" d="M200.4,99.14c-.7,0-1.26.39-1.27.88v9.79c0,.49.57.89,1.27.89s1.27-.4,1.27-.89V100C201.66,99.53,201.09,99.14,200.4,99.14Z" transform="translate(-13.43 -20.44)"/><path d="M200.63,98.68a1.94,1.94,0,0,0-1.92-1.08h-10a2,2,0,0,0-1.93,1.07h-4c-.87,0-1.57.5-1.58,1.1v10.14c0,.6.71,1.09,1.57,1.08h4a1.9,1.9,0,0,0,1.93,1.12h10a2,2,0,0,0,1.87-1c1-.06,1.76-.65,1.77-1.35V100C202.33,99.33,201.6,98.76,200.63,98.68Zm-11.94-.6h10a1.3,1.3,0,0,1,1.22.62,1.71,1.71,0,0,0-1.48,1.12h-9.78c-.69,0-1.26-.39-1.27-.87S188,98.07,188.69,98.08Zm-1.92,12.44h-4c-.49,0-.89-.26-.9-.61h0V99.77c0-.34.4-.61.88-.61h4a1.88,1.88,0,0,0,1.93,1.15h9.73v9.13h-9.71A1.87,1.87,0,0,0,186.77,110.52Zm11.94,1.14h-10c-.69,0-1.27-.36-1.3-.84s.51-.89,1.2-.91h9.86a1.58,1.58,0,0,0,1.45,1.22A1.49,1.49,0,0,1,198.71,111.66Zm3-1.85c0,.49-.57.89-1.27.89s-1.27-.4-1.27-.89V100c0-.49.57-.89,1.27-.89s1.27.4,1.27.89Z" transform="translate(-13.43 -20.44)"/><path class="cls-12" d="M216.44,99.82h9.78a1.7,1.7,0,0,1,1.48-1.12,1.3,1.3,0,0,0-1.22-.62h-10c-.69,0-1.26.38-1.27.87S215.75,99.82,216.44,99.82Z" transform="translate(-13.43 -20.44)"/><path class="cls-12" d="M226.19,109.91h-9.75c-.69,0-1.27.36-1.3.84s.51.89,1.19.91h10.12a1.5,1.5,0,0,0,1.2-.53A1.6,1.6,0,0,1,226.19,109.91Z" transform="translate(-13.43 -20.44)"/><path class="cls-12" d="M226.15,109.44v-9.13h-9.73a1.88,1.88,0,0,1-1.93-1.15h-4c-.49,0-.89.26-.89.6h0v10.14c0,.34.4.62.89.61h4a1.88,1.88,0,0,1,1.93-1.08Z" transform="translate(-13.43 -20.44)"/><path class="cls-12" d="M228.15,99.14c-.7,0-1.27.39-1.27.88v9.79c0,.49.57.89,1.27.89s1.26-.4,1.26-.89V100C229.41,99.53,228.84,99.14,228.15,99.14Z" transform="translate(-13.43 -20.44)"/><path d="M228.38,98.68a2,2,0,0,0-1.93-1.08h-10a2,2,0,0,0-1.93,1.07h-4c-.87,0-1.57.5-1.58,1.1v10.14c0,.6.71,1.09,1.57,1.08h4a1.9,1.9,0,0,0,1.93,1.12h10a2,2,0,0,0,1.88-1c1-.06,1.76-.65,1.77-1.35V100C230.08,99.33,229.35,98.76,228.38,98.68Zm-11.94-.6h10a1.3,1.3,0,0,1,1.22.62,1.7,1.7,0,0,0-1.48,1.12h-9.78c-.69,0-1.26-.39-1.27-.87S215.75,98.07,216.44,98.08Zm-1.92,12.44h-4c-.49,0-.89-.26-.9-.61h0V99.77c0-.34.4-.61.88-.61h4a1.88,1.88,0,0,0,1.93,1.15h9.73v9.13h-9.71A1.87,1.87,0,0,0,214.52,110.52Zm11.93,1.14h-10c-.69,0-1.27-.36-1.3-.84s.51-.89,1.19-.91h9.86a1.6,1.6,0,0,0,1.46,1.22A1.5,1.5,0,0,1,226.45,111.66Zm3-1.85c0,.49-.56.89-1.26.89s-1.27-.4-1.27-.89V100c0-.49.57-.89,1.27-.89s1.26.4,1.26.89Z" transform="translate(-13.43 -20.44)"/><path class="cls-12" d="M244.19,99.82H254a1.7,1.7,0,0,1,1.48-1.12,1.32,1.32,0,0,0-1.23-.62h-10c-.7,0-1.26.38-1.27.87S243.49,99.82,244.19,99.82Z" transform="translate(-13.43 -20.44)"/><path class="cls-12" d="M253.94,109.91h-9.75c-.69,0-1.27.36-1.3.84s.5.89,1.19.91H254.2a1.51,1.51,0,0,0,1.2-.53A1.6,1.6,0,0,1,253.94,109.91Z" transform="translate(-13.43 -20.44)"/><path class="cls-12" d="M253.9,109.44v-9.13h-9.73a1.88,1.88,0,0,1-1.93-1.15h-4c-.49,0-.89.26-.9.6h0v10.14c0,.34.41.62.9.61h4a1.87,1.87,0,0,1,1.92-1.08Z" transform="translate(-13.43 -20.44)"/><path class="cls-12" d="M255.89,99.14c-.69,0-1.26.39-1.26.88v9.79c0,.49.56.89,1.26.89s1.27-.4,1.27-.89V100C257.16,99.53,256.59,99.14,255.89,99.14Z" transform="translate(-13.43 -20.44)"/><path d="M256.13,98.68a2,2,0,0,0-1.93-1.08h-10a2,2,0,0,0-1.93,1.07h-4c-.86,0-1.56.5-1.57,1.1v10.14c0,.6.71,1.09,1.57,1.08h4a1.9,1.9,0,0,0,1.93,1.12h10a2,2,0,0,0,1.88-1c1-.06,1.76-.65,1.76-1.35V100C257.83,99.33,257.1,98.76,256.13,98.68Zm-11.94-.6h10a1.32,1.32,0,0,1,1.23.62A1.7,1.7,0,0,0,254,99.82h-9.78c-.7,0-1.26-.39-1.27-.87S243.49,98.07,244.19,98.08Zm-1.92,12.44h-4c-.48,0-.88-.26-.89-.61h0V99.77c0-.34.39-.61.88-.61h4a1.88,1.88,0,0,0,1.93,1.15h9.73v9.13h-9.71A1.86,1.86,0,0,0,242.27,110.52Zm11.93,1.14h-10c-.69,0-1.27-.36-1.3-.84s.5-.89,1.19-.91h9.86a1.6,1.6,0,0,0,1.46,1.22A1.51,1.51,0,0,1,254.2,111.66Zm3-1.85c0,.49-.57.89-1.27.89s-1.26-.4-1.26-.89V100c0-.49.56-.89,1.26-.89s1.27.4,1.27.89Z" transform="translate(-13.43 -20.44)"/><path class="cls-12" d="M271.94,99.82h9.78a1.69,1.69,0,0,1,1.48-1.12,1.32,1.32,0,0,0-1.23-.62h-10c-.7,0-1.27.38-1.27.87S271.24,99.82,271.94,99.82Z" transform="translate(-13.43 -20.44)"/><path class="cls-12" d="M281.69,109.91h-9.75c-.69,0-1.27.36-1.3.84s.5.89,1.19.91H282a1.51,1.51,0,0,0,1.2-.53A1.6,1.6,0,0,1,281.69,109.91Z" transform="translate(-13.43 -20.44)"/><path class="cls-12" d="M281.64,109.44v-9.13h-9.72A1.88,1.88,0,0,1,270,99.16h-4c-.49,0-.89.26-.9.6h0v10.14c0,.34.41.62.89.61h4a1.87,1.87,0,0,1,1.92-1.08Z" transform="translate(-13.43 -20.44)"/><path class="cls-12" d="M283.64,99.14c-.69,0-1.26.39-1.27.88v9.79c0,.49.57.89,1.27.89s1.27-.4,1.27-.89V100C284.9,99.53,284.34,99.14,283.64,99.14Z" transform="translate(-13.43 -20.44)"/><path d="M283.88,98.68A2,2,0,0,0,282,97.6h-10A2,2,0,0,0,270,98.67h-4c-.86,0-1.56.5-1.57,1.1v10.14c0,.6.71,1.09,1.57,1.08h4a1.89,1.89,0,0,0,1.92,1.12h10a2,2,0,0,0,1.88-1c1-.06,1.76-.65,1.76-1.35V100C285.58,99.33,284.84,98.76,283.88,98.68Zm-11.94-.6h10a1.32,1.32,0,0,1,1.23.62,1.69,1.69,0,0,0-1.48,1.12h-9.78c-.7,0-1.27-.39-1.27-.87S271.24,98.07,271.94,98.08ZM270,110.52h-4c-.48,0-.88-.26-.89-.61h0V99.77c0-.34.39-.61.88-.61h4a1.86,1.86,0,0,0,1.92,1.15h9.73v9.13h-9.7A1.86,1.86,0,0,0,270,110.52ZM282,111.66h-10c-.69,0-1.27-.36-1.3-.84s.5-.89,1.19-.91h9.86a1.6,1.6,0,0,0,1.46,1.22A1.51,1.51,0,0,1,282,111.66Zm3-1.85c0,.49-.57.89-1.27.89s-1.27-.4-1.27-.89V100c0-.49.57-.89,1.27-.89s1.27.4,1.27.89Z" transform="translate(-13.43 -20.44)"/><path class="cls-12" d="M299.68,99.82h9.78a1.71,1.71,0,0,1,1.48-1.12,1.29,1.29,0,0,0-1.22-.62h-10c-.69,0-1.26.38-1.26.87S299,99.82,299.68,99.82Z" transform="translate(-13.43 -20.44)"/><path class="cls-12" d="M309.44,109.91h-9.76c-.68,0-1.26.36-1.29.84s.5.89,1.19.91H309.7a1.51,1.51,0,0,0,1.2-.53A1.6,1.6,0,0,1,309.44,109.91Z" transform="translate(-13.43 -20.44)"/><path class="cls-12" d="M309.39,109.44v-9.13h-9.72a1.87,1.87,0,0,1-1.93-1.15h-4c-.49,0-.89.26-.9.6h0v10.14c0,.34.41.62.89.61h4a1.89,1.89,0,0,1,1.93-1.08Z" transform="translate(-13.43 -20.44)"/><path class="cls-12" d="M311.39,99.14c-.69,0-1.26.39-1.27.88v9.79c0,.49.57.89,1.27.89s1.27-.4,1.27-.89V100C312.65,99.53,312.08,99.14,311.39,99.14Z" transform="translate(-13.43 -20.44)"/><path d="M311.62,98.68a1.94,1.94,0,0,0-1.92-1.08h-10a2,2,0,0,0-1.92,1.07h-4c-.86,0-1.56.5-1.57,1.1v10.14c0,.6.71,1.09,1.56,1.08h4a1.89,1.89,0,0,0,1.92,1.12h10a2.05,2.05,0,0,0,1.88-1c1-.06,1.76-.65,1.76-1.35V100C313.33,99.33,312.59,98.76,311.62,98.68Zm-11.94-.6h10a1.29,1.29,0,0,1,1.22.62,1.71,1.71,0,0,0-1.48,1.12h-9.78c-.69,0-1.26-.39-1.26-.87S299,98.07,299.68,98.08Zm-1.92,12.44h-4c-.49,0-.89-.26-.89-.61h0V99.77c0-.34.39-.61.88-.61h4a1.86,1.86,0,0,0,1.92,1.15h9.73v9.13h-9.71A1.87,1.87,0,0,0,297.76,110.52Zm11.94,1.14h-10c-.68,0-1.26-.36-1.29-.84s.5-.89,1.19-.91h9.86a1.6,1.6,0,0,0,1.46,1.22A1.51,1.51,0,0,1,309.7,111.66Zm3-1.85c0,.49-.57.89-1.27.89s-1.27-.4-1.27-.89V100c0-.49.57-.89,1.27-.89s1.27.4,1.27.89Z" transform="translate(-13.43 -20.44)"/><path class="cls-12" d="M327.43,99.82h9.78a1.71,1.71,0,0,1,1.48-1.12,1.29,1.29,0,0,0-1.22-.62h-10c-.69,0-1.26.38-1.27.87S326.74,99.82,327.43,99.82Z" transform="translate(-13.43 -20.44)"/><path class="cls-12" d="M337.19,109.91h-9.76c-.68,0-1.27.36-1.29.84s.5.89,1.19.91h10.12a1.51,1.51,0,0,0,1.2-.53A1.59,1.59,0,0,1,337.19,109.91Z" transform="translate(-13.43 -20.44)"/><path class="cls-12" d="M337.14,109.44v-9.13h-9.72a1.86,1.86,0,0,1-1.93-1.15h-4c-.48,0-.88.26-.89.6h0v10.14c0,.34.4.62.89.61h4a1.89,1.89,0,0,1,1.93-1.08Z" transform="translate(-13.43 -20.44)"/><path class="cls-12" d="M339.14,99.14c-.69,0-1.26.39-1.27.88v9.79c0,.49.57.89,1.27.89s1.27-.4,1.27-.89V100C340.4,99.53,339.83,99.14,339.14,99.14Z" transform="translate(-13.43 -20.44)"/><path d="M339.37,98.68a1.94,1.94,0,0,0-1.92-1.08h-10a2,2,0,0,0-1.92,1.07h-4c-.87,0-1.56.5-1.58,1.1v10.14c0,.6.71,1.09,1.57,1.08h4a1.91,1.91,0,0,0,1.93,1.12h10a2.05,2.05,0,0,0,1.88-1c1-.06,1.76-.65,1.76-1.35V100C341.07,99.33,340.34,98.76,339.37,98.68Zm-11.94-.6h10a1.29,1.29,0,0,1,1.22.62,1.71,1.71,0,0,0-1.48,1.12h-9.78c-.69,0-1.26-.39-1.27-.87S326.74,98.07,327.43,98.08Zm-1.92,12.44h-4c-.49,0-.89-.26-.9-.61h0V99.77c0-.34.4-.61.89-.61h4a1.88,1.88,0,0,0,1.93,1.15h9.73v9.13h-9.71A1.87,1.87,0,0,0,325.51,110.52Zm11.94,1.14h-10c-.68,0-1.27-.36-1.29-.84s.5-.89,1.19-.91h9.86a1.59,1.59,0,0,0,1.46,1.22A1.51,1.51,0,0,1,337.45,111.66Zm3-1.85c0,.49-.57.89-1.27.89s-1.27-.4-1.27-.89V100c0-.49.57-.89,1.27-.89s1.27.4,1.27.89Z" transform="translate(-13.43 -20.44)"/><path class="cls-12" d="M355.18,99.82H365a1.7,1.7,0,0,1,1.48-1.12,1.3,1.3,0,0,0-1.22-.62h-10c-.69,0-1.26.38-1.27.87S354.49,99.82,355.18,99.82Z" transform="translate(-13.43 -20.44)"/><path class="cls-12" d="M364.94,109.91h-9.76c-.69,0-1.27.36-1.3.84s.51.89,1.2.91H365.2a1.48,1.48,0,0,0,1.19-.53A1.58,1.58,0,0,1,364.94,109.91Z" transform="translate(-13.43 -20.44)"/><path class="cls-12" d="M364.89,109.44v-9.13h-9.73a1.86,1.86,0,0,1-1.92-1.15h-4c-.48,0-.88.26-.89.6h0v10.14c0,.34.4.62.89.61h4a1.88,1.88,0,0,1,1.93-1.08Z" transform="translate(-13.43 -20.44)"/><path class="cls-12" d="M366.89,99.14c-.7,0-1.26.39-1.27.88v9.79c0,.49.57.89,1.27.89s1.27-.4,1.27-.89V100C368.15,99.53,367.58,99.14,366.89,99.14Z" transform="translate(-13.43 -20.44)"/><path d="M367.12,98.68a1.94,1.94,0,0,0-1.92-1.08h-10a2,2,0,0,0-1.93,1.07h-4c-.87,0-1.57.5-1.58,1.1v10.14c0,.6.71,1.09,1.57,1.08h4a1.9,1.9,0,0,0,1.93,1.12h10a2.05,2.05,0,0,0,1.88-1c1-.06,1.75-.65,1.76-1.35V100C368.82,99.33,368.09,98.76,367.12,98.68Zm-11.94-.6h10a1.3,1.3,0,0,1,1.22.62A1.71,1.71,0,0,0,365,99.82h-9.78c-.69,0-1.26-.39-1.27-.87S354.49,98.07,355.18,98.08Zm-1.92,12.44h-4c-.49,0-.89-.26-.9-.61h0V99.77c0-.34.4-.61.88-.61h4a1.88,1.88,0,0,0,1.93,1.15h9.73v9.13h-9.71A1.87,1.87,0,0,0,353.26,110.52Zm11.94,1.14h-10c-.69,0-1.27-.36-1.3-.84s.51-.89,1.2-.91h9.86a1.58,1.58,0,0,0,1.45,1.22A1.48,1.48,0,0,1,365.2,111.66Zm3-1.85c0,.49-.57.89-1.27.89s-1.27-.4-1.27-.89V100c0-.49.57-.89,1.27-.89s1.27.4,1.27.89Z" transform="translate(-13.43 -20.44)"/><path class="cls-12" d="M382.93,99.82h9.78a1.7,1.7,0,0,1,1.48-1.12,1.3,1.3,0,0,0-1.22-.62h-10c-.69,0-1.26.38-1.27.87S382.24,99.82,382.93,99.82Z" transform="translate(-13.43 -20.44)"/><path class="cls-12" d="M392.68,109.91h-9.75c-.69,0-1.27.36-1.3.84s.51.89,1.2.91h10.11a1.5,1.5,0,0,0,1.2-.53A1.6,1.6,0,0,1,392.68,109.91Z" transform="translate(-13.43 -20.44)"/><path class="cls-12" d="M392.64,109.44v-9.13h-9.73A1.88,1.88,0,0,1,381,99.16h-4c-.49,0-.89.26-.89.6h0v10.14c0,.34.4.62.89.61h4a1.88,1.88,0,0,1,1.93-1.08Z" transform="translate(-13.43 -20.44)"/><path class="cls-12" d="M394.64,99.14c-.7,0-1.27.39-1.27.88v9.79c0,.49.57.89,1.27.89s1.27-.4,1.27-.89V100C395.9,99.53,395.33,99.14,394.64,99.14Z" transform="translate(-13.43 -20.44)"/><path d="M394.87,98.68a2,2,0,0,0-1.93-1.08h-10A2,2,0,0,0,381,98.67h-4c-.87,0-1.57.5-1.58,1.1v10.14c0,.6.71,1.09,1.57,1.08h4a1.9,1.9,0,0,0,1.93,1.12h10a2,2,0,0,0,1.88-1c1-.06,1.76-.65,1.77-1.35V100C396.57,99.33,395.84,98.76,394.87,98.68Zm-11.94-.6h10a1.3,1.3,0,0,1,1.22.62,1.7,1.7,0,0,0-1.48,1.12h-9.78c-.69,0-1.26-.39-1.27-.87S382.24,98.07,382.93,98.08ZM381,110.52h-4c-.49,0-.89-.26-.9-.61h0V99.77c0-.34.4-.61.88-.61h4a1.88,1.88,0,0,0,1.93,1.15h9.73v9.13h-9.71A1.87,1.87,0,0,0,381,110.52Zm11.93,1.14h-10c-.69,0-1.27-.36-1.3-.84s.51-.89,1.2-.91h9.85a1.6,1.6,0,0,0,1.46,1.22A1.5,1.5,0,0,1,392.94,111.66Zm3-1.85c0,.49-.57.89-1.27.89s-1.27-.4-1.27-.89V100c0-.49.57-.89,1.27-.89s1.27.4,1.27.89Z" transform="translate(-13.43 -20.44)"/><path class="cls-12" d="M41.56,88.57H53.84a2.45,2.45,0,0,1,1.85-2,1.6,1.6,0,0,0-1.53-1.12H41.56a1.57,1.57,0,1,0,0,3.13Z" transform="translate(-13.43 -20.44)"/><path class="cls-12" d="M53.8,106.67H41.56a1.57,1.57,0,1,0-.13,3.13h12.7a1.69,1.69,0,0,0,1.5-1A2.43,2.43,0,0,1,53.8,106.67Z" transform="translate(-13.43 -20.44)"/><path class="cls-12" d="M53.75,105.82V89.45H41.54a2.45,2.45,0,0,1-2.42-2.07h-5A1.11,1.11,0,0,0,33,88.47h0v18.19a1.11,1.11,0,0,0,1.12,1.09h5a2.39,2.39,0,0,1,2.42-1.93Z" transform="translate(-13.43 -20.44)"/><path class="cls-12" d="M56.25,87.36a1.57,1.57,0,0,0-1.59,1.56v17.57a1.6,1.6,0,0,0,3.19,0V88.92A1.58,1.58,0,0,0,56.25,87.36Z" transform="translate(-13.43 -20.44)"/><path d="M56.55,86.53a2.47,2.47,0,0,0-2.42-1.93H41.56a2.47,2.47,0,0,0-2.42,1.91h-5a2,2,0,0,0-2,2v18.19a1.94,1.94,0,0,0,2,1.93h5a2.44,2.44,0,0,0,2.42,2H54.13a2.46,2.46,0,0,0,2.36-1.7,2.43,2.43,0,0,0,2.21-2.42V88.92A2.45,2.45,0,0,0,56.55,86.53Zm-15-1.09h12.6a1.61,1.61,0,0,1,1.53,1.13,2.45,2.45,0,0,0-1.85,2H41.56a1.57,1.57,0,1,1,0-3.13Zm-2.41,22.32h-5A1.11,1.11,0,0,1,33,106.67h0V88.48a1.1,1.1,0,0,1,1.1-1.1h5a2.43,2.43,0,0,0,2.42,2.06H53.75v16.38H41.56A2.39,2.39,0,0,0,39.15,107.76Zm15,2H41.56a1.57,1.57,0,1,1-.13-3.13H53.8a2.43,2.43,0,0,0,1.83,2.18A1.69,1.69,0,0,1,54.13,109.8Zm3.72-3.31a1.6,1.6,0,0,1-3.19,0V88.92a1.6,1.6,0,0,1,3.19,0Z" transform="translate(-13.43 -20.44)"/></g></g></svg>